<svg width="186" height="50" viewBox="0 0 186 50" fill="none" xmlns="http://www.w3.org/2000/svg">
<g clip-path="url(#clip0_202_221)">
<g clip-path="url(#clip1_202_221)">
<path fill-rule="evenodd" clip-rule="evenodd" d="M13.2218 27.8766H23.5364L23.5345 41.2422H1.44711C1.12018 41.2422 0.806638 41.1124 0.575464 40.8812C0.34429 40.65 0.214417 40.3365 0.214417 40.0095V14.4838C0.214417 6.47353 6.70832 -0.0203703 14.7186 -0.0203703H26.3947C26.7213 -0.020538 27.0345 0.108934 27.2657 0.339598C27.4968 0.570263 27.6269 0.88325 27.6274 1.20979V6.26439L13.2218 27.8766ZM27.6612 21.6877V8.7542L49.0232 8.75609C49.3503 8.75609 49.664 8.88603 49.8953 9.11732C50.1266 9.34862 50.2565 9.66232 50.2565 9.98942V35.5152C50.2565 43.5261 43.7626 50.02 35.7517 50.02H24.8028C24.6409 50.02 24.4805 49.9881 24.3309 49.9261C24.1813 49.8641 24.0454 49.7732 23.9309 49.6587C23.8165 49.5442 23.7257 49.4082 23.6638 49.2586C23.6019 49.1089 23.57 48.9486 23.5701 48.7866V43.2992L37.9757 21.6877H27.6612Z" fill="white"/>
</g>
<g clip-path="url(#clip2_202_221)">
<path d="M75.5677 27.1352C75.5677 31.312 72.605 34.3825 68.9683 34.3825C67.2163 34.3825 65.8251 33.7814 65.0839 32.3981L64.747 34.1747H60.6821L64.0057 17.0476H68.2706L67.1946 22.6099C68.1048 21.8434 69.2505 21.4347 70.4269 21.4567C73.0527 21.4567 75.5677 23.5105 75.5677 27.1352ZM71.2573 27.3587C71.2573 25.9039 70.4052 24.9586 68.9445 24.9586C67.262 24.9586 66.049 26.3665 66.049 28.4672C66.049 29.922 66.9011 30.8449 68.3619 30.8449C70.0443 30.8516 71.2573 29.4437 71.2573 27.3654V27.3587Z" fill="white"/>
<path d="M79.6067 17.0476H83.8737L80.5544 34.1747H76.2896L79.6067 17.0476Z" fill="white"/>
<path d="M85.7367 21.6646H89.9797L87.5561 34.1792H83.313L85.7367 21.6646ZM86.0062 18.1091C86.0062 16.7013 87.0931 15.6174 88.7451 15.6174C90.2493 15.6174 91.2144 16.5113 91.2144 17.7181C91.2144 19.2176 90.1145 20.2791 88.4538 20.2791C86.9496 20.2791 86.0062 19.3092 86.0062 18.1091V18.1091Z" fill="white"/>
<path d="M104.755 25.7028C104.754 26.2225 104.701 26.7409 104.596 27.2492L103.248 34.177H98.9834L100.24 27.6671C100.301 27.3945 100.332 27.1156 100.331 26.8358C100.331 25.7519 99.7921 25.1754 98.6465 25.1754C97.188 25.1754 96.1772 26.0693 95.7946 27.9912L94.5839 34.177H90.3169L92.7427 21.6623H96.7837L96.5359 22.954C97.576 21.9727 98.9412 21.4364 100.353 21.4545C102.957 21.4568 104.755 22.9116 104.755 25.7028Z" fill="white"/>
<path d="M115.217 27.2049L119.303 34.1751H114.319L111.828 29.9045L110.076 31.4688L109.561 34.1684H105.293L108.617 17.0412H112.882L111.154 25.9288L116.071 21.6582H121.459L115.217 27.2049Z" fill="white"/>
<path d="M141.554 21.457L140.813 25.4036C140.493 25.3588 140.171 25.3357 139.848 25.3343C137.983 25.3343 136.794 26.188 136.39 28.2663L135.223 34.175H130.955L133.381 21.6603H137.422L137.153 23.0459C138.231 21.9173 139.735 21.457 141.554 21.457Z" fill="white"/>
<path d="M156.035 21.6648L153.609 34.1794H149.568L149.816 33.0016C148.862 33.9194 147.596 34.4167 146.29 34.3872C143.664 34.3872 141.149 32.3335 141.149 28.6863C141.149 24.5319 144.112 21.4614 147.748 21.4614C149.387 21.4614 150.713 21.9687 151.476 23.1687L151.768 21.6692L156.035 21.6648ZM150.668 27.3656C150.668 25.9108 149.816 24.9655 148.355 24.9655C146.672 24.9655 145.459 26.3734 145.459 28.474C145.459 29.9289 146.312 30.8518 147.772 30.8518C149.479 30.8518 150.668 29.4439 150.668 27.3656Z" fill="white"/>
<path d="M172.604 17.0476L169.283 34.1747H165.24L165.487 32.9523C164.54 33.8863 163.274 34.4 161.962 34.3825C159.336 34.3825 156.821 32.3288 156.821 28.6817C156.821 24.5273 159.807 21.4567 163.444 21.4567C165.061 21.4567 166.385 21.964 167.139 23.1194L168.331 17.0476H172.604ZM166.342 27.3654C166.342 25.9106 165.509 24.9653 164.051 24.9653C162.344 24.9653 161.155 26.3732 161.155 28.4739C161.155 29.9287 161.985 30.8516 163.444 30.8516C165.15 30.8516 166.342 29.4437 166.342 27.3654V27.3654Z" fill="white"/>
<path d="M185.546 29.0105H176.61C176.766 30.3961 177.697 31.0419 179.37 31.0419C180.434 31.0559 181.471 30.6982 182.312 30.0274L184.085 32.7739C182.564 33.927 180.74 34.3896 178.899 34.3896C174.986 34.3896 172.434 32.1727 172.434 28.6887C172.434 24.5343 175.421 21.4638 179.799 21.4638C183.494 21.4638 185.792 23.6784 185.792 26.9568C185.783 27.6486 185.701 28.3373 185.546 29.0105V29.0105ZM176.851 26.7043H181.851C181.872 25.3634 180.953 24.579 179.584 24.579C178.155 24.5723 177.251 25.4506 176.851 26.6976V26.7043Z" fill="white"/>
<path d="M127.385 25.4034H130.146L130.954 21.6356H128.194L128.822 18.3818L121.323 25.4034H123.12L122.312 29.5355C122.231 29.9224 122.193 30.3175 122.199 30.7132C122.199 33.044 123.816 34.3826 126.307 34.3826C127.431 34.3826 128.574 34.1748 129.474 33.6429L128.935 30.6193C128.545 30.8516 128.105 30.9792 127.655 30.9903C126.914 30.9903 126.533 30.6193 126.533 29.9288C126.539 29.7894 126.554 29.6506 126.577 29.5131L127.385 25.4034Z" fill="white"/>
</g>
</g>
<defs>
<clipPath id="clip0_202_221">
<rect width="186" height="50" fill="white"/>
</clipPath>
<clipPath id="clip1_202_221">
<rect width="50.0406" height="50.0406" fill="white" transform="translate(0.216492 -0.0202789)"/>
</clipPath>
<clipPath id="clip2_202_221">
<rect width="125.101" height="18.7652" fill="white" transform="translate(60.6821 15.6174)"/>
</clipPath>
</defs>
</svg>
