<svg width="277" height="255" viewBox="0 0 277 255" fill="none" xmlns="http://www.w3.org/2000/svg">
<g opacity="0.3">
<path d="M2.03191 56.2793C1.97735 56.2793 1.92195 56.2743 1.8664 56.2645C1.35667 56.1754 1.01674 55.6875 1.10741 55.1781C1.2932 54.1345 1.52696 53.0828 1.8026 52.0557C1.91503 51.637 2.2937 51.3617 2.70732 51.3617C2.78777 51.3617 2.86953 51.3716 2.95097 51.3947C3.45097 51.5282 3.74738 52.0425 3.61352 52.5421C3.35173 53.5163 3.12984 54.5154 2.95361 55.5061C2.92937 55.643 2.87711 55.7666 2.80342 55.8737C2.63165 56.1227 2.34415 56.2793 2.03191 56.2793ZM4.35766 48.4504C4.23551 48.4504 4.11121 48.4273 3.99169 48.3745C3.51526 48.1734 3.29304 47.6228 3.49548 47.1464C3.91026 46.1704 4.37267 45.1994 4.86954 44.2598C5.0362 43.94 5.36129 43.7603 5.6976 43.7603C5.84596 43.7603 5.99648 43.7949 6.1366 43.8691C6.59424 44.1114 6.76898 44.6785 6.52698 45.1352C6.05483 46.0287 5.61517 46.9519 5.22134 47.88C5.19611 47.9393 5.16528 47.9937 5.13034 48.0448C4.95378 48.3004 4.66198 48.4504 4.35766 48.4504V48.4504ZM8.36542 41.332C8.17584 41.332 7.98445 41.2743 7.81877 41.1556C7.40383 40.8572 7.30525 40.2818 7.59341 39.8631L7.60512 39.8466C8.22513 38.9844 8.88966 38.1388 9.57957 37.3343C9.76519 37.1183 10.0278 37.0062 10.2919 37.0062C10.508 37.0062 10.725 37.0804 10.902 37.2321C11.269 37.5469 11.3326 38.0844 11.0647 38.4751C11.0459 38.5014 11.0253 38.5278 11.0034 38.5542C10.3478 39.3191 9.71656 40.1219 9.12721 40.9413C8.94406 41.1951 8.65688 41.332 8.36542 41.332V41.332ZM13.8461 35.2769C13.5862 35.2769 13.3275 35.1714 13.1422 34.9604C12.7998 34.5713 12.8392 33.9811 13.226 33.6366C14.0224 32.936 14.8588 32.26 15.7125 31.6287C15.8799 31.505 16.0753 31.4457 16.2687 31.4457C16.556 31.4457 16.8397 31.5775 17.0237 31.8265C17.2677 32.1562 17.2626 32.5947 17.0423 32.9145C16.9848 32.9969 16.9126 33.0744 16.8265 33.1371C16.0161 33.7371 15.2217 34.3768 14.4657 35.0444C14.2875 35.201 14.0662 35.2769 13.8461 35.2769" fill="#DEE8FD"/>
</g>
<g opacity="0.3">
<path d="M61.7265 34.9434C61.5118 34.9434 61.2953 34.8707 61.1182 34.7189C60.3536 34.0654 59.5484 33.4349 58.7265 32.8474C58.3099 32.5487 58.2111 31.9744 58.4999 31.5535L58.5098 31.5387C58.6928 31.2829 58.9807 31.1475 59.2724 31.1475C59.4624 31.1475 59.6524 31.2053 59.8185 31.3225C60.684 31.943 61.5306 32.6064 62.3358 33.293C62.7049 33.6082 62.7691 34.1462 62.5 34.5374C62.4822 34.5638 62.4614 34.5902 62.4396 34.6149C62.2548 34.8328 61.9916 34.9434 61.7265 34.9434" fill="url(#paint0_linear_1_1411)"/>
</g>
<g opacity="0.3">
<path d="M20.5374 30.6055C20.2045 30.6055 19.8822 30.4281 19.7125 30.1151C19.4655 29.6599 19.6342 29.0909 20.0894 28.8432C21.0224 28.3378 21.9889 27.8658 22.9613 27.4407C23.0833 27.3872 23.2106 27.3621 23.336 27.3621C23.6973 27.3621 24.0416 27.5712 24.1956 27.9244C24.3305 28.2323 24.2861 28.5737 24.1085 28.8315C24.0126 28.9704 23.8784 29.0859 23.7119 29.1595C22.7881 29.5628 21.8703 30.0113 20.9834 30.4917C20.8415 30.5687 20.6884 30.6055 20.5374 30.6055" fill="#DEE8FD"/>
</g>
<g opacity="0.3">
<path d="M54.964 30.3633C54.8166 30.3633 54.6674 30.3281 54.5279 30.2544C53.634 29.7838 52.7111 29.3466 51.7841 28.9564C51.3076 28.7537 51.084 28.2044 51.2853 27.7271C51.4382 27.3686 51.7844 27.1543 52.1492 27.1543C52.271 27.1543 52.3947 27.1777 52.514 27.228C53.4889 27.64 54.4605 28.1005 55.4023 28.5963C55.8602 28.8375 56.0352 29.4036 55.7939 29.8625C55.7771 29.896 55.7574 29.9278 55.7366 29.958C55.5586 30.2176 55.2658 30.3633 54.964 30.3633" fill="url(#paint1_linear_1_1411)"/>
</g>
<g opacity="0.3">
<path d="M28.1034 27.5352C27.6934 27.5352 27.3171 27.265 27.2009 26.8514C27.0609 26.3516 27.3518 25.8349 27.8504 25.6948C28.8739 25.4078 29.9208 25.1613 30.9612 24.962C31.0208 24.9502 31.0802 24.9452 31.1386 24.9452C31.5793 24.9452 31.9722 25.2575 32.0581 25.7066C32.1073 25.9632 32.047 26.2148 31.9099 26.4141C31.775 26.6099 31.566 26.7551 31.3135 26.8041C30.3248 26.9932 29.3298 27.2279 28.3571 27.4997C28.2724 27.5233 28.1871 27.5352 28.1034 27.5352" fill="#DEE8FD"/>
</g>
<g opacity="0.3">
<path d="M47.3635 27.3887C47.2836 27.3887 47.2026 27.3785 47.1215 27.3566C46.1474 27.0982 45.1504 26.8769 44.1572 26.7029C43.6474 26.6134 43.3066 26.1269 43.3965 25.6168C43.477 25.1625 43.8726 24.8415 44.3194 24.8415C44.3731 24.8415 44.4276 24.8466 44.4823 24.8551C45.5282 25.0392 46.5785 25.2723 47.604 25.5459C48.1043 25.6776 48.4018 26.1911 48.2687 26.6928C48.2403 26.7992 48.1947 26.8972 48.1356 26.9816C47.962 27.235 47.6726 27.3887 47.3635 27.3887Z" fill="url(#paint2_linear_1_1411)"/>
</g>
<g opacity="0.3">
<path d="M36.1636 26.2158C35.6673 26.2158 35.253 25.8266 35.2275 25.3256C35.2019 24.8077 35.5996 24.3677 36.1163 24.3406C36.7474 24.3085 37.3841 24.2932 38.0201 24.2932C38.4524 24.2932 38.8841 24.3 39.3136 24.3152C39.5134 24.322 39.6963 24.3914 39.8446 24.5031C39.326 25.065 38.8184 25.6235 38.3268 26.1701C38.2236 26.1684 38.1203 26.1684 38.0169 26.1684C37.4137 26.1684 36.8101 26.1837 36.2116 26.2141C36.1954 26.2141 36.1795 26.2158 36.1636 26.2158" fill="#DEE8FD"/>
</g>
<g opacity="0.3">
<path d="M1.46893 62.8408C0.953729 62.8408 0.534365 62.4244 0.531707 61.9076C0.529197 61.3996 0.537024 60.8828 0.555187 60.3704C0.572168 59.8639 0.988873 59.4667 1.49108 59.4667C1.50245 59.4667 1.51382 59.4667 1.52519 59.4682C2.04245 59.4859 2.4472 59.92 2.42874 60.4369C2.41176 60.9241 2.40423 61.4159 2.40688 61.8987C2.40792 62.0966 2.34679 62.2812 2.24224 62.4333C2.07405 62.6769 1.79334 62.8393 1.47395 62.8408C1.47218 62.8408 1.47055 62.8408 1.46893 62.8408Z" fill="#DEE8FD"/>
</g>
<g opacity="0.3">
<path d="M12.7695 89.0947C12.5371 89.0934 12.3043 89.0094 12.1229 88.8361C11.7544 88.4843 11.3872 88.1193 11.0314 87.7517C10.6718 87.3802 10.6802 86.7868 11.0541 86.4257C11.2361 86.2498 11.4709 86.1632 11.7054 86.1632C11.9508 86.1632 12.1959 86.2577 12.3798 86.4494C12.7176 86.7986 13.0666 87.1452 13.4163 87.4786C13.7544 87.8003 13.7991 88.3149 13.5427 88.6877C13.5148 88.7284 13.4834 88.7678 13.4485 88.8046C13.264 88.9976 13.0171 89.0947 12.7695 89.0947" fill="url(#paint3_linear_1_1411)"/>
</g>
<g opacity="0.3">
<path d="M16.7806 92.6123C16.764 92.6008 16.7474 92.5907 16.7307 92.5777C16.5018 92.4208 16.2754 92.2624 16.051 92.0997C15.6311 91.7973 15.5237 91.2113 15.8383 90.7923C16.0214 90.5374 16.3086 90.4021 16.5998 90.4021C16.6428 90.4021 16.6858 90.4049 16.7284 90.4107L16.7806 92.6123ZM72.9908 73.5624L71.6495 73.5278C71.8226 73.3593 72.058 73.2629 72.3034 73.2629C72.4102 73.2629 72.5179 73.2816 72.6238 73.319C72.7692 73.3723 72.8929 73.4558 72.9908 73.5624ZM73.6832 70.3499C73.618 70.3499 73.5516 70.3427 73.4854 70.3298C72.979 70.2203 72.6564 69.7221 72.7663 69.2153C72.9749 68.2448 73.1441 67.2556 73.2697 66.2707C73.33 65.7969 73.7336 65.4528 74.1976 65.4528C74.2382 65.4528 74.2778 65.4543 74.3182 65.46C74.8317 65.5262 75.1956 65.9942 75.1293 66.5083C74.9969 67.545 74.8187 68.5889 74.5992 69.6098C74.5725 69.7322 74.523 69.846 74.4557 69.9439C74.2827 70.1944 73.9948 70.3499 73.6832 70.3499" fill="url(#paint4_linear_1_1411)"/>
</g>
<g opacity="0.3">
<path d="M74.493 62.3291C73.9797 62.3291 73.5614 61.9163 73.5553 61.4013C73.5504 60.9204 73.5356 60.4291 73.5108 59.9423C73.4841 59.4244 73.8818 58.9849 74.3991 58.9582C74.4149 58.9568 74.4318 58.9568 74.4476 58.9568C74.9432 58.9568 75.3577 59.3459 75.3833 59.8461C75.41 60.3581 75.4259 60.876 75.4308 61.3835C75.4328 61.5833 75.3714 61.7683 75.2656 61.9236C75.0984 62.1648 74.8205 62.3261 74.503 62.3291C74.499 62.3291 74.496 62.3291 74.493 62.3291" fill="url(#paint5_linear_1_1411)"/>
</g>
<path d="M63.7959 50.6627C63.7435 50.4828 63.5832 50.357 63.3963 50.3472L58.0698 50.0905C56.8451 47.9228 55.2655 45.9333 53.3585 44.2217L54.2575 38.9675C54.2882 38.7844 54.2001 38.5997 54.036 38.5098L48.4264 35.4348C48.2626 35.3449 48.0596 35.3678 47.9213 35.4953L43.9756 39.0771C41.5064 38.3905 38.9802 38.1289 36.4933 38.2629L33.412 33.9096C33.304 33.7575 33.1111 33.6905 32.9318 33.7428L26.7907 35.5345C26.6116 35.5868 26.4849 35.747 26.4761 35.9334L26.2194 41.2611C24.0507 42.4855 22.0615 44.0647 20.3494 45.9725L15.0959 45.0734C14.9117 45.0423 14.7278 45.1306 14.6379 45.2941L11.5629 50.9046C11.473 51.0681 11.497 51.2708 11.6227 51.4098L15.2056 55.3544C14.5185 57.8246 14.257 60.3503 14.3912 62.8368L10.0383 65.9183C9.88577 66.0262 9.81841 66.2191 9.87089 66.3989L11.6629 72.5391C11.7152 72.719 11.8758 72.8448 12.0623 72.8546L17.3892 73.1097C18.6136 75.279 20.1928 77.2685 22.1001 78.9817L21.2016 84.2343C21.1701 84.419 21.2589 84.6021 21.4228 84.692L27.0322 87.767C27.196 87.8569 27.3989 87.8324 27.5373 87.7081L31.483 84.1247C33.9522 84.8113 36.4784 85.0729 38.9654 84.9389L42.0466 89.2922C42.1545 89.4443 42.3474 89.5113 42.527 89.459L48.6679 87.6673C48.8472 87.615 48.9737 87.4548 48.9827 87.2684L49.2392 81.9407C51.4079 80.7162 53.3969 79.1371 55.1092 77.2309L60.3625 78.1284C60.5466 78.1595 60.7305 78.0712 60.8206 77.9077L63.8957 72.2988C63.9858 72.1337 63.9621 71.931 63.8354 71.792L60.2528 67.8473C60.9402 65.3788 61.2013 62.8515 61.0678 60.365L65.4202 57.2835C65.5733 57.1756 65.6397 56.9827 65.5882 56.8028L63.7959 50.6627" fill="#E8EAEE"/>
<g opacity="0.3">
<path d="M32.8043 61.7816C32.8526 63.0975 33.4104 64.3153 34.3752 65.2121C36.3664 67.0615 39.4921 66.947 41.3426 64.9559C43.1942 62.9648 43.0783 59.8388 41.0869 57.9879C39.0959 56.1385 35.97 56.2531 34.1195 58.2441C33.9518 58.425 33.7996 58.6149 33.6622 58.8139C33.0666 59.6805 32.7651 60.7115 32.8043 61.7816ZM42.4413 65.9763C40.0276 68.5748 35.9515 68.724 33.3539 66.3109C32.0956 65.1413 31.3681 63.5527 31.3052 61.8359C31.2422 60.1206 31.8511 58.4808 33.0208 57.2222C35.4343 54.6267 39.5108 54.476 42.1082 56.8906C44.4711 59.0867 44.8082 62.6589 43.032 65.2408C42.856 65.4955 42.6588 65.7442 42.4413 65.9763Z" fill="#9B9DA3"/>
</g>
<g opacity="0.3">
<path d="M50.6107 70.6122C50.9157 70.1683 51.2002 69.7071 51.4626 69.2285C51.5452 69.0774 51.6253 68.9263 51.7031 68.7736C52.0862 68.018 52.4085 67.2325 52.6654 66.4313C52.6688 66.4203 52.6723 66.4093 52.6758 66.3983C52.6857 66.3668 52.6954 66.3353 52.7049 66.3054C52.7239 66.244 52.742 66.1842 52.7603 66.1228C52.8078 65.9622 52.7441 65.7969 52.6137 65.7072C52.5821 65.6852 52.5464 65.6679 52.5076 65.6568C52.3091 65.597 52.1009 65.7104 52.0415 65.9087C51.7377 66.9303 51.3215 67.9267 50.8049 68.8681C48.2402 73.548 43.5356 76.3247 38.5685 76.6537C35.8056 76.8363 32.9615 76.2602 30.3588 74.834C29.9023 74.5837 29.4619 74.313 29.0389 74.0218C26.1918 72.0636 24.1221 69.2097 23.1413 65.8473C22.0142 61.986 22.4587 57.9168 24.3924 54.3892C28.3869 47.1041 37.5568 44.4297 44.8383 48.4217C45.2874 48.6688 45.7222 48.9364 46.1412 49.2245C47.9573 50.4743 49.4798 52.1067 50.5938 54.0114C50.6225 54.0602 50.6607 54.1011 50.7048 54.131C50.8206 54.2113 50.9771 54.2223 51.1067 54.1452C51.2852 54.0413 51.3462 53.8115 51.2409 53.632C50.0715 51.6329 48.4731 49.9171 46.5666 48.6074C46.1267 48.3052 45.6702 48.0218 45.1993 47.7637C37.5542 43.5733 27.9243 46.3847 23.7346 54.0271C21.7044 57.7311 21.2381 62.0033 22.4213 66.0567C23.4509 69.5874 25.6238 72.583 28.6125 74.6388C29.0569 74.9442 29.5192 75.2291 29.998 75.492C33.7015 77.5226 37.9737 77.9886 42.0277 76.8064C45.5578 75.7754 48.5547 73.6015 50.6107 70.6122" fill="#9B9DA3"/>
</g>
<g opacity="0.3">
<path d="M100.513 22.4258C100.344 22.4258 100.177 22.3519 100.062 22.2111C99.7668 21.8469 99.456 21.4879 99.1386 21.1427C98.923 20.9073 98.9368 20.5398 99.1742 20.3251C99.2849 20.222 99.4255 20.1722 99.566 20.1722C99.7221 20.1722 99.8775 20.2357 99.9923 20.3594C100.324 20.7218 100.651 21.0997 100.961 21.4811C101.127 21.6855 101.131 21.9672 100.989 22.1733C100.959 22.2179 100.921 22.2592 100.877 22.2952C100.77 22.3828 100.641 22.4258 100.513 22.4258" fill="url(#paint6_linear_1_1411)"/>
</g>
<g opacity="0.3">
<path d="M59.3083 27.749C59.2283 27.749 59.1462 27.7331 59.069 27.6978C58.7773 27.5654 58.6487 27.2227 58.7811 26.9313C59.1481 26.1242 59.5646 25.3258 60.0185 24.5558C60.0869 24.4392 60.157 24.3227 60.2273 24.2079C60.3303 24.0277 60.5212 23.9306 60.7169 23.9306C60.8218 23.9306 60.9286 23.9588 61.0245 24.0171C61.2967 24.1849 61.3817 24.5399 61.2146 24.8137C61.1482 24.9214 61.083 25.0309 61.0176 25.1422C60.5825 25.8787 60.1847 26.6416 59.8355 27.4099C59.8207 27.4417 59.8039 27.4717 59.7852 27.4982C59.6764 27.6572 59.4954 27.749 59.3083 27.749ZM62.4459 22.6201C62.3193 22.6201 62.1927 22.5795 62.086 22.4947C61.8357 22.2969 61.7981 21.9348 61.9929 21.6805C62.633 20.8769 63.3273 20.1068 64.0574 19.3915C64.1701 19.282 64.3165 19.2273 64.4629 19.2273C64.6132 19.2273 64.7626 19.2838 64.8764 19.4004C65.0731 19.6017 65.094 19.909 64.9396 20.1333C64.9189 20.1633 64.8951 20.1916 64.8675 20.2199C64.172 20.8998 63.5093 21.6346 62.9 22.4028C62.7852 22.5459 62.6162 22.6201 62.4459 22.6201V22.6201ZM97.3938 19.2432C97.2612 19.2432 97.1276 19.199 97.0188 19.1054C96.4037 18.5844 95.7548 18.0863 95.0891 17.6289C94.9496 17.5335 94.8071 17.4381 94.6637 17.3445C94.3977 17.1679 94.3224 16.8094 94.4985 16.5409C94.6123 16.382 94.8032 16.2866 94.9971 16.2866C95.101 16.2866 95.2068 16.3149 95.3007 16.3767C95.4501 16.4738 95.5985 16.5745 95.7458 16.6752C96.4433 17.1538 97.1238 17.6748 97.7688 18.2241C97.9971 18.4166 98.0377 18.7504 97.8716 18.9924C97.8597 19.0083 97.8479 19.0242 97.835 19.0401C97.7202 19.1743 97.5581 19.2432 97.3938 19.2432V19.2432ZM66.7409 18.4148C66.5659 18.4148 66.3937 18.3371 66.2799 18.187C66.086 17.9327 66.1346 17.5706 66.3887 17.3746C67.2028 16.7546 68.0645 16.1789 68.9507 15.6631C69.0426 15.6102 69.1425 15.5854 69.2414 15.5854C69.4403 15.5854 69.6351 15.6879 69.742 15.8716C69.8587 16.0729 69.8419 16.3131 69.7192 16.4915C69.6717 16.5604 69.6095 16.6204 69.5332 16.6646C68.6885 17.1556 67.8675 17.7048 67.091 18.2965C66.9862 18.376 66.8635 18.4148 66.7409 18.4148V18.4148ZM92.3689 15.9422C92.2829 15.9422 92.1958 15.9228 92.1128 15.8822C91.2362 15.4477 90.3244 15.0626 89.4035 14.7412C89.1008 14.6352 88.9425 14.305 89.0472 14.003C89.1313 13.7663 89.356 13.6162 89.5953 13.6162C89.6585 13.6162 89.7228 13.6268 89.7852 13.648C90.7507 13.9853 91.7071 14.388 92.626 14.8436C92.9129 14.9849 93.0307 15.3329 92.8881 15.619C92.8763 15.6437 92.8615 15.6684 92.8466 15.6914C92.737 15.8504 92.5559 15.9422 92.3689 15.9422V15.9422ZM71.932 15.3929C71.7074 15.3929 71.4938 15.2605 71.3999 15.0397C71.2732 14.7465 71.4098 14.4056 71.7045 14.2802C72.6452 13.8776 73.6215 13.5296 74.6067 13.2453C74.66 13.2294 74.7145 13.2223 74.7669 13.2223C75.0191 13.2223 75.2507 13.3866 75.3238 13.6409C75.3743 13.814 75.3397 13.9924 75.2447 14.1301C75.1715 14.2361 75.0617 14.3191 74.9282 14.3579C73.9884 14.6299 73.0576 14.962 72.1595 15.3452C72.0853 15.377 72.0081 15.3929 71.932 15.3929V15.3929ZM86.6942 13.9588C86.6536 13.9588 86.6129 13.9535 86.5714 13.9447C85.617 13.7398 84.6387 13.5914 83.6643 13.5067C83.3459 13.4784 83.1105 13.1976 83.1382 12.8779C83.1649 12.5759 83.4171 12.3498 83.7138 12.3498C83.7306 12.3498 83.7484 12.3516 83.7662 12.3533C84.788 12.4417 85.8137 12.5971 86.8157 12.8125C87.1274 12.8797 87.3272 13.1887 87.2599 13.5014C87.2431 13.5773 87.2124 13.6462 87.1709 13.7062C87.064 13.8617 86.886 13.9588 86.6942 13.9588V13.9588ZM77.7067 13.7239C77.4267 13.7239 77.1804 13.5208 77.135 13.2364C77.0845 12.9203 77.2991 12.6236 77.6147 12.5724C78.6256 12.4099 79.6572 12.3092 80.683 12.2721C80.6899 12.2721 80.6968 12.2721 80.7048 12.2721C81.0144 12.2721 81.2715 12.5176 81.2825 12.8302C81.2864 12.9591 81.2487 13.0792 81.1816 13.1781C81.0806 13.3247 80.9155 13.4236 80.7245 13.4307C79.7463 13.4643 78.7611 13.5614 77.7987 13.7151C77.768 13.7204 77.7364 13.7239 77.7067 13.7239" fill="url(#paint7_linear_1_1411)"/>
</g>
<g opacity="0.3">
<path d="M81.1656 62.2783C81.1625 62.2783 81.1597 62.2783 81.1566 62.2783C80.1467 62.2624 79.1289 62.1841 78.1318 62.0484C77.8153 62.0037 77.5937 61.7115 77.6373 61.3953C77.6769 61.1047 77.9262 60.8939 78.211 60.8939C78.2367 60.8939 78.2634 60.8971 78.2901 60.9003C79.2406 61.0312 80.211 61.1047 81.1745 61.119C81.494 61.1238 81.7492 61.3873 81.7443 61.7067C81.7433 61.8248 81.7056 61.935 81.6424 62.026C81.5384 62.1777 81.3634 62.2783 81.1656 62.2783ZM84.1251 62.1426C83.8333 62.1426 83.582 61.9222 83.5504 61.6252C83.5157 61.3075 83.7463 61.0216 84.0647 60.9881C85.0183 60.8875 85.9788 60.7246 86.9176 60.5091C86.961 60.4979 87.0046 60.4947 87.048 60.4947C87.3112 60.4947 87.5496 60.6751 87.6118 60.9434C87.6495 61.1079 87.613 61.2723 87.5239 61.4017C87.4458 61.5166 87.3241 61.6045 87.1777 61.638C86.1934 61.8647 85.1874 62.034 84.1875 62.1394C84.1666 62.1426 84.1458 62.1426 84.1251 62.1426V62.1426ZM89.8879 60.8125C89.6506 60.8125 89.428 60.6656 89.3429 60.4308C89.2342 60.1306 89.3894 59.7985 89.6901 59.6883C90.5942 59.361 91.4874 58.9762 92.345 58.5418C92.4281 58.4987 92.5172 58.4795 92.6052 58.4795C92.8169 58.4795 93.0207 58.5945 93.1225 58.7973C93.2214 58.9921 93.1987 59.2189 93.0829 59.3865C93.0294 59.4648 92.9573 59.5302 92.8672 59.575C91.9692 60.03 91.0323 60.434 90.0848 60.7773C90.0195 60.8013 89.9532 60.8125 89.8879 60.8125V60.8125ZM95.1621 58.1442C94.9751 58.1442 94.7921 58.0532 94.6804 57.8871C94.5023 57.6221 94.5735 57.2628 94.8386 57.084C95.6368 56.5506 96.4105 55.9614 97.1404 55.3323C97.2502 55.2381 97.3847 55.1918 97.5183 55.1918C97.6806 55.1918 97.8426 55.2588 97.9565 55.3914C98.1326 55.5957 98.1414 55.8864 97.9951 56.0987C97.9683 56.1386 97.9348 56.1754 97.8961 56.2089C97.1316 56.8684 96.3195 57.4863 95.4836 58.0452C95.3847 58.1123 95.2729 58.1442 95.1621 58.1442ZM99.6381 54.28C99.4995 54.28 99.3601 54.2305 99.2493 54.1315C99.0118 53.9159 98.9981 53.5502 99.2097 53.3123C99.8537 52.6018 100.462 51.8433 101.018 51.0561C101.131 50.898 101.31 50.8117 101.491 50.8117C101.606 50.8117 101.723 50.8469 101.825 50.9187C102.083 51.1024 102.146 51.4585 101.967 51.7187L101.963 51.7267C101.381 52.5507 100.743 53.3459 100.067 54.09C99.9527 54.2177 99.7954 54.28 99.6381 54.28V54.28ZM103.053 49.4529C102.96 49.4529 102.866 49.4289 102.778 49.3826C102.497 49.2309 102.392 48.8796 102.543 48.597C103 47.7523 103.412 46.8693 103.764 45.9751C103.854 45.7483 104.072 45.6078 104.303 45.6078C104.374 45.6078 104.445 45.6206 104.515 45.6493C104.812 45.7659 104.959 46.1012 104.841 46.3998C104.472 47.3371 104.042 48.2617 103.562 49.1479C103.552 49.1671 103.541 49.1846 103.529 49.2022C103.42 49.3619 103.239 49.4529 103.053 49.4529V49.4529ZM105.218 43.9471C105.169 43.9471 105.121 43.9423 105.072 43.928C104.763 43.8497 104.577 43.5336 104.657 43.2238C104.897 42.2929 105.082 41.3364 105.207 40.3847C105.247 40.0925 105.496 39.8801 105.782 39.8801C105.806 39.8801 105.831 39.8817 105.857 39.8849C106.173 39.9264 106.397 40.217 106.355 40.5348C106.225 41.5344 106.031 42.5356 105.778 43.5128C105.761 43.5799 105.732 43.6421 105.695 43.6964C105.588 43.8529 105.409 43.9471 105.218 43.9471Z" fill="url(#paint8_linear_1_1411)"/>
</g>
<g opacity="0.3">
<path d="M105.986 38.0557C105.985 38.0557 105.984 38.0557 105.982 38.0557C105.663 38.0524 105.406 37.791 105.408 37.471C105.411 36.9985 105.401 36.5243 105.377 36.0598C105.361 35.7399 105.606 35.4687 105.926 35.4524C105.936 35.4508 105.946 35.4508 105.956 35.4508C106.262 35.4508 106.517 35.6912 106.533 35.9997C106.559 36.4869 106.57 36.9855 106.566 37.4808C106.565 37.6009 106.527 37.7114 106.464 37.804C106.359 37.955 106.184 38.0557 105.986 38.0557Z" fill="url(#paint9_linear_1_1411)"/>
</g>
<path d="M98.8292 29.8522C98.7945 29.733 98.6866 29.6483 98.562 29.6414L94.997 29.4703C94.1781 28.0188 93.1216 26.6882 91.8447 25.5426L92.446 22.0279C92.4678 21.9035 92.4075 21.7808 92.2988 21.7203L88.5449 19.6623C88.435 19.6035 88.2995 19.6191 88.2066 19.7037L85.5665 22.1004C83.9146 21.6408 82.2241 21.4663 80.5593 21.5561L78.498 18.6427C78.4258 18.5408 78.2962 18.4959 78.1765 18.5304L74.0675 19.7296C73.9469 19.7642 73.8627 19.8731 73.8568 19.9975L73.6847 23.5623C72.2336 24.3814 70.9021 25.4372 69.7568 26.7142L66.2412 26.1128C66.1187 26.0921 65.995 26.1509 65.9347 26.2614L63.8772 30.0146C63.8169 30.1235 63.8336 30.26 63.9178 30.3516L66.3145 32.9919C65.8556 34.6456 65.6805 36.3356 65.7695 37.9997L62.8573 40.0611C62.7556 40.1337 62.7099 40.2633 62.7447 40.3825L63.9444 44.4917C63.9791 44.6127 64.087 44.6973 64.2116 44.7025L67.7764 44.8736C68.5955 46.3251 69.652 47.6574 70.9279 48.8013L70.3274 52.3177C70.3058 52.4404 70.3651 52.5631 70.4748 52.6236L74.2287 54.6816C74.3386 54.7421 74.4741 54.7266 74.567 54.6419L77.2071 52.2434C78.859 52.7048 80.5495 52.8793 82.2142 52.7895L84.2756 55.7029C84.3478 55.8048 84.4763 55.848 84.5971 55.8135L88.7061 54.616C88.8267 54.5797 88.9109 54.4725 88.9168 54.3464L89.0889 50.7833C90.54 49.9625 91.8704 48.9067 93.0168 47.6314L96.5323 48.2328C96.6549 48.2535 96.7786 48.193 96.8378 48.0842L98.8964 44.3293C98.9557 44.2204 98.9399 44.0839 98.8558 43.9923L96.458 41.3519C96.918 39.7 97.0931 38.01 97.0031 36.346L99.9161 34.2827C100.018 34.2102 100.064 34.0823 100.028 33.9613L98.8292 29.8522" fill="#E8EAEE"/>
<g opacity="0.3">
<path d="M79.1924 39.5333C79.8226 40.1183 80.6437 40.4239 81.5042 40.3927C82.3637 40.3599 83.16 39.9951 83.7457 39.3657C84.3311 38.7348 84.6369 37.9148 84.6052 37.0538C84.5745 36.1944 84.2095 35.3975 83.5794 34.8125C82.2776 33.6032 80.235 33.6787 79.0253 34.9785C78.9165 35.0968 78.8186 35.22 78.7295 35.3482C77.8404 36.643 78.0085 38.4324 79.1924 39.5333ZM84.5944 40.1545C83.7981 41.0122 82.7159 41.5068 81.5468 41.5495C80.3775 41.5939 79.2618 41.1782 78.4042 40.3812C76.6355 38.738 76.5346 35.9644 78.1776 34.1898C79.8216 32.4217 82.5982 32.3198 84.3668 33.9646C85.2244 34.7599 85.7199 35.8428 85.7625 37.0127C85.7981 37.9625 85.53 38.8777 85.0009 39.6467C84.8791 39.8242 84.7436 39.9934 84.5944 40.1545" fill="#9B9DA3"/>
</g>
<g opacity="0.3">
<path d="M90.2815 43.378C90.4891 43.0768 90.683 42.7622 90.8632 42.4341C91.2202 41.783 91.511 41.0948 91.7295 40.3865C91.7386 40.3562 91.7484 40.3242 91.7573 40.2906C91.8315 40.0449 91.7325 39.7875 91.5318 39.6495C91.4824 39.6159 91.4278 39.5889 91.3676 39.5704C91.0609 39.4796 90.7405 39.6562 90.6485 39.9625C90.4506 40.6237 90.1816 41.2681 89.8473 41.8772C89.8294 41.9109 89.8106 41.9445 89.7919 41.9765C88.9887 43.4083 87.859 44.5878 86.5039 45.4391C85.7689 45.9018 84.9667 46.2669 84.1142 46.5244L84.0933 46.5311C84.0716 46.5378 84.0507 46.5429 84.029 46.5496C81.5294 47.2798 78.8952 46.9921 76.6113 45.7386C76.3156 45.5788 76.0307 45.4021 75.7566 45.2137C73.9139 43.9467 72.5736 42.0976 71.9386 39.9204C71.2095 37.4218 71.4974 34.787 72.7487 32.5037C74.0009 30.2222 76.0672 28.5615 78.5668 27.8313C81.0674 27.1011 83.7016 27.3888 85.9855 28.6406C86.2754 28.8005 86.5574 28.9738 86.8283 29.1605C88.0044 29.9698 88.9897 31.0265 89.7108 32.2598C89.7552 32.3355 89.8136 32.3961 89.8819 32.4432C90.0609 32.566 90.3032 32.5828 90.5031 32.4667C90.778 32.3052 90.8719 31.9502 90.7097 31.6743C89.9036 30.2946 88.8007 29.1117 87.4851 28.2065C87.1814 27.9979 86.867 27.8044 86.5424 27.6261C83.9864 26.2245 81.0398 25.9031 78.2424 26.7192C75.446 27.5352 73.1334 29.3894 71.7338 31.9468C70.3321 34.5009 70.0107 37.4488 70.8278 40.2451C71.538 42.6815 73.0364 44.7476 75.0989 46.166C75.4045 46.378 75.724 46.5749 76.0544 46.7549C81.0011 49.4672 87.1518 47.931 90.2815 43.378" fill="#9B9DA3"/>
</g>
<path d="M258.413 223.966H218.851H49.5058H24.1195C21.7365 223.966 19.7868 222.018 19.7868 219.637L19.2396 196.497L16.7833 92.6129L16.7312 90.4108L16.5692 83.5598C16.4986 80.5724 17.6572 77.6856 19.7745 75.5745C21.8249 73.5317 24.6006 72.388 27.4895 72.388C27.5836 72.388 27.6782 72.3899 27.7727 72.3918L71.6525 73.526L72.9939 73.5621L114.213 74.628C117.023 77.714 121.073 79.6449 125.56 79.6449C125.641 79.6449 125.722 79.6449 125.803 79.643C129.929 79.5804 133.65 77.8923 136.367 75.2008L159.589 75.8021C158.935 77.458 158.445 79.1973 158.146 80.9992L28.673 77.5243C28.6046 77.5224 28.5359 77.5224 28.4676 77.5224C26.4404 77.5224 24.4932 78.3267 23.054 79.7625C21.5662 81.2457 20.7479 83.2771 20.8006 85.3787L24.0643 215.485C24.0643 217.739 25.9089 219.584 28.1634 219.584H81.6085L81.9624 220.605H88.9321C91.1794 220.605 93.3794 220.252 95.4636 219.584H182.295C184.076 220.558 186.105 221.097 188.218 221.097H205.585C207.117 221.097 208.566 220.545 209.697 219.584H252.762C255.018 219.584 256.861 217.739 256.861 215.485L258.363 115.768L259.094 114.184L264.264 114.776L263.344 178.276L262.745 219.637C262.745 222.018 260.795 223.966 258.413 223.966V223.966ZM239.525 83.1823L209.185 82.3686C208.978 80.5307 208.58 78.7534 208.009 77.0558L243.793 77.9815L239.525 83.1823Z" fill="#747474"/>
<path d="M252.762 219.584H209.696C210.265 219.098 210.754 218.509 211.13 217.832L211.207 217.695C211.407 217.386 211.59 217.06 211.746 216.718L254.306 124.55L254.189 132.516C254.185 132.849 254.449 133.122 254.78 133.127H254.79C255.117 133.127 255.385 132.864 255.39 132.535L255.547 121.862L258.362 115.768L256.86 215.485C256.86 217.739 255.016 219.584 252.762 219.584V219.584ZM182.294 219.584H95.4622C100.018 218.123 104.02 215.154 106.743 211.063L147.887 149.249L176.952 213.814C178.08 216.319 179.977 218.319 182.294 219.584V219.584ZM81.6071 219.584H28.162C25.9074 219.584 24.0629 217.739 24.0629 215.485L20.7991 85.3779C20.7465 83.2774 21.5648 81.2457 23.0526 79.7629C24.4917 78.3265 26.439 77.5228 28.4662 77.5228C28.5347 77.5228 28.6033 77.5228 28.6716 77.5246L158.144 80.9982C157.891 82.5164 157.77 84.0793 157.794 85.6738C158.014 99.771 169.512 111.05 183.561 111.05C183.697 111.05 183.834 111.048 183.968 111.046C197.839 110.83 208.979 99.6985 209.337 85.9603L236.644 86.6933L219.008 108.188C217.863 109.582 218.855 111.678 220.658 111.678H230.435L192.343 184.655L166.972 134.948L164.52 129.007C163.093 125.548 160.756 122.51 157.677 120.382C154.479 118.173 151.271 117.371 148.296 117.371C140.428 117.371 134.205 122.981 134.205 122.981C122.336 133.662 76.2894 204.266 76.2894 204.266L81.6071 219.584ZM237.607 85.5193L209.34 84.7602C209.324 83.9528 209.272 83.1546 209.182 82.3676L239.524 83.1825L237.607 85.5193Z" fill="#E8EAEE"/>
<path d="M254.433 157.418H254.424C254.092 157.413 253.827 157.141 253.833 156.809L253.978 146.896C253.982 146.567 254.251 146.304 254.578 146.304H254.586C254.919 146.309 255.184 146.582 255.178 146.914L255.033 156.826C255.029 157.155 254.761 157.418 254.433 157.418" fill="#6B7A85"/>
<path d="M254.79 133.126H254.783C254.451 133.121 254.185 132.848 254.19 132.516L254.748 94.5507C254.738 92.2952 254.054 90.4957 252.712 89.211C250.213 86.8153 246.243 86.9371 246.075 86.9445L175.932 85.0655C175.601 85.0563 175.339 84.7794 175.348 84.4491C175.357 84.1168 175.61 83.8344 175.965 83.864L246.065 85.7448C246.501 85.7189 250.728 85.6469 253.544 88.3435C255.128 89.8607 255.938 91.9519 255.949 94.5563L255.392 132.534C255.386 132.863 255.119 133.126 254.79 133.126" fill="#6B7A85"/>
<path d="M1.33607 235.144H276.44C276.746 235.144 276.999 234.891 276.999 234.584V223.872C276.999 223.565 276.746 223.313 276.44 223.313H1.33607C1.02858 223.313 0.776978 223.565 0.776978 223.872V234.584C0.776978 234.891 1.02858 235.144 1.33607 235.144Z" fill="#747474"/>
<path d="M211.206 217.694L211.748 216.718C211.59 217.059 211.409 217.386 211.206 217.694ZM211.748 216.718C209.882 216.718 208.174 215.672 207.325 214.01L192.344 184.654L230.435 111.678H220.659C218.856 111.678 217.865 109.581 219.008 108.188L236.645 86.6941L237.608 85.5179L239.525 83.1812L243.793 77.9799L262.933 54.653L269.866 46.2029C270.617 45.2868 271.618 44.8809 272.601 44.8809C274.508 44.8809 276.354 46.4019 276.22 48.6893L273.874 88.4948L272.646 109.303C272.455 112.537 269.768 115.004 266.607 115.004C266.377 115.004 266.145 114.991 265.91 114.963L264.265 114.775L259.093 114.184L258.362 115.768L255.549 121.862L254.308 124.549L211.748 216.718ZM271.034 49.168C270.497 49.168 269.976 49.4163 269.628 49.8694L227.631 104.438C227.462 104.656 227.503 104.97 227.722 105.138C227.813 105.208 227.921 105.242 228.025 105.242C228.177 105.242 228.325 105.175 228.423 105.047L270.418 50.4802C270.595 50.2516 270.82 50.1669 271.029 50.1669C271.139 50.1669 271.247 50.1905 271.34 50.2299C271.61 50.3383 271.878 50.6102 271.828 51.0495L271.088 57.5905C271.056 57.8644 271.253 58.1126 271.529 58.1422C271.547 58.1442 271.566 58.1461 271.584 58.1461C271.836 58.1461 272.051 57.959 272.081 57.7029L272.821 51.1618C272.914 50.3541 272.469 49.6074 271.716 49.302C271.492 49.2114 271.263 49.168 271.034 49.168ZM270.814 63.9227C270.564 63.9227 270.349 64.1119 270.319 64.366L269.984 67.3252C269.953 67.5991 270.15 67.8473 270.424 67.8788C270.443 67.8808 270.463 67.8808 270.483 67.8808C270.733 67.8808 270.948 67.6936 270.977 67.4375L271.312 64.4783C271.344 64.2044 271.147 63.9562 270.873 63.9267C270.853 63.9247 270.834 63.9227 270.814 63.9227Z" fill="url(#paint10_linear_1_1411)"/>
<path d="M228.026 105.243C227.921 105.243 227.812 105.21 227.722 105.14C227.504 104.97 227.463 104.657 227.63 104.438L269.626 49.8716C269.977 49.4174 270.495 49.1698 271.033 49.1698C271.262 49.1698 271.492 49.2127 271.716 49.3043C272.468 49.6084 272.913 50.355 272.821 51.1639L272.08 57.7038C272.051 57.9592 271.837 58.1463 271.585 58.1463C271.566 58.1463 271.546 58.1463 271.529 58.1444C271.254 58.1132 271.057 57.8656 271.088 57.5908L271.829 51.0509C271.878 50.6103 271.609 50.3394 271.34 50.2302C271.248 50.1932 271.139 50.1698 271.028 50.1698C270.819 50.1698 270.595 50.2517 270.417 50.4797L228.422 105.048C228.324 105.175 228.176 105.243 228.026 105.243" fill="#A6A4A4"/>
<path d="M205.584 221.098H188.218C186.104 221.098 184.076 220.559 182.293 219.584C179.979 218.319 178.08 216.319 176.953 213.814L147.886 149.249L156.274 136.647C157.702 134.504 160.04 133.361 162.415 133.361C164.007 133.361 165.617 133.876 166.973 134.948L192.342 184.655L207.324 214.01C208.173 215.673 209.881 216.719 211.747 216.719L211.205 217.695L211.13 217.833C210.753 218.509 210.267 219.099 209.695 219.584C208.566 220.546 207.116 221.098 205.584 221.098" fill="url(#paint11_linear_1_1411)"/>
<path d="M88.9341 220.604H81.9642L81.6101 219.584L76.2924 204.266C76.2924 204.266 122.338 133.662 134.207 122.981C134.207 122.981 140.431 117.371 148.299 117.371C151.273 117.371 154.482 118.173 157.678 120.383C160.758 122.509 163.095 125.547 164.524 129.006L166.975 134.948C165.619 133.877 164.01 133.361 162.416 133.361C160.043 133.361 157.703 134.503 156.276 136.647L147.889 149.249L106.745 211.063C104.023 215.153 100.021 218.123 95.4646 219.584C93.3809 220.252 91.1816 220.604 88.9341 220.604V220.604ZM128.504 167.751C128.345 167.751 128.186 167.828 128.09 167.971L126.698 170.035C126.543 170.263 126.604 170.574 126.833 170.728C126.919 170.787 127.015 170.814 127.111 170.814C127.272 170.814 127.429 170.737 127.526 170.594L128.918 168.53C129.074 168.301 129.013 167.99 128.784 167.836C128.698 167.778 128.602 167.751 128.504 167.751ZM157.239 127.774C155.959 127.774 154.788 128.398 154.062 129.474L132.342 161.669C132.187 161.898 132.248 162.208 132.477 162.363C132.563 162.42 132.659 162.448 132.756 162.448C132.916 162.448 133.073 162.371 133.171 162.228L154.889 130.033C155.427 129.237 156.292 128.775 157.24 128.775C157.318 128.775 157.395 128.777 157.473 128.783C158.51 128.862 159.394 129.47 159.839 130.409C159.925 130.589 160.104 130.695 160.29 130.695C160.363 130.695 160.434 130.68 160.504 130.647C160.753 130.53 160.861 130.232 160.741 129.982C160.142 128.712 158.948 127.893 157.548 127.787C157.445 127.779 157.342 127.774 157.239 127.774Z" fill="url(#paint12_linear_1_1411)"/>
<path d="M22.4196 160.321C22.4196 160.321 30.7107 149.957 46.7771 148.346C46.7771 148.346 54.4082 150.946 69.6105 178.186C84.8129 205.426 94.9032 217.849 106.744 211.064L105.764 212.692C102.534 218.056 96.7292 221.336 90.4669 221.336H83.9177C76.7077 221.336 69.9389 217.869 65.7281 212.016C53.8962 195.568 29.6879 162.875 22.4196 160.321" fill="url(#paint13_linear_1_1411)"/>
<path d="M132.755 162.447C132.658 162.447 132.561 162.42 132.475 162.363C132.247 162.209 132.186 161.897 132.34 161.669L154.061 129.474C154.786 128.398 155.957 127.773 157.238 127.773C157.34 127.773 157.444 127.778 157.547 127.787C158.947 127.893 160.141 128.712 160.74 129.981C160.859 130.23 160.753 130.528 160.503 130.646C160.433 130.679 160.361 130.694 160.29 130.694C160.103 130.694 159.924 130.588 159.838 130.409C159.394 129.469 158.509 128.861 157.472 128.783C157.395 128.776 157.316 128.774 157.238 128.774C156.29 128.774 155.426 129.237 154.888 130.033L133.169 162.228C133.072 162.37 132.916 162.447 132.755 162.447" fill="#A6A4A4"/>
<path d="M127.11 170.814C127.014 170.814 126.917 170.788 126.832 170.729C126.602 170.574 126.543 170.264 126.697 170.036L128.09 167.971C128.186 167.829 128.344 167.751 128.504 167.751C128.601 167.751 128.698 167.779 128.783 167.837C129.012 167.991 129.072 168.302 128.918 168.53L127.525 170.595C127.429 170.738 127.271 170.814 127.11 170.814Z" fill="#A6A4A4"/>
<path d="M125.56 79.6465C121.072 79.6465 117.024 77.7154 114.213 74.63C111.782 71.9607 110.278 68.4299 110.216 64.5369C110.085 56.0605 116.85 49.0821 125.326 48.9496C125.408 48.948 125.488 48.948 125.57 48.948C133.937 48.948 140.782 55.6629 140.912 64.0576C140.98 68.4083 139.232 72.3645 136.367 75.2018C133.65 77.8942 129.93 79.5817 125.804 79.6449C125.722 79.6465 125.64 79.6465 125.56 79.6465V79.6465ZM125.57 49.4581C125.491 49.4581 125.412 49.4582 125.334 49.4597C117.139 49.5876 110.6 56.3348 110.728 64.5277C110.855 72.645 117.472 79.1363 125.56 79.1363C125.637 79.1363 125.718 79.1364 125.795 79.1348C133.989 79.0069 140.53 72.2597 140.402 64.0668C140.275 55.9495 133.658 49.4581 125.57 49.4581Z" fill="url(#paint14_linear_1_1411)"/>
<path d="M125.56 79.1348C117.473 79.1348 110.853 72.6427 110.727 64.5265C110.599 56.3318 117.14 49.586 125.334 49.4583C125.412 49.4568 125.49 49.4568 125.569 49.4568C133.657 49.4568 140.276 55.9488 140.402 64.0651C140.529 72.2582 133.99 79.0056 125.795 79.1332C125.717 79.1348 125.638 79.1348 125.56 79.1348ZM125.897 52.0545C125.83 52.0545 125.764 52.0545 125.697 52.0561C118.762 52.1637 113.226 57.8729 113.334 64.8095C113.441 71.6784 119.043 77.1738 125.889 77.1738C125.955 77.1738 126.021 77.1738 126.087 77.1722C133.024 77.0646 138.558 71.3538 138.45 64.4188C138.344 57.5484 132.742 52.0545 125.897 52.0545V52.0545ZM125.567 50.1012C125.492 50.1012 125.418 50.1012 125.344 50.1043C119.954 50.1873 115.143 53.2527 112.788 58.1067C112.668 58.3528 112.771 58.6496 113.017 58.7681C113.088 58.8034 113.16 58.8188 113.234 58.8188C113.235 58.8188 113.238 58.8188 113.242 58.8188C113.423 58.8157 113.595 58.7127 113.68 58.5389C115.872 54.0263 120.347 51.1732 125.358 51.0963C125.427 51.0948 125.497 51.0932 125.567 51.0932C126.298 51.0932 127.03 51.1548 127.745 51.2717C127.773 51.2763 127.801 51.2793 127.83 51.2793C128.067 51.2793 128.276 51.1055 128.316 50.8641C128.36 50.5949 128.177 50.3381 127.907 50.2935C127.139 50.1658 126.353 50.1012 125.567 50.1012" fill="url(#paint15_linear_1_1411)"/>
<path d="M113.232 58.8203C113.158 58.8203 113.086 58.8034 113.015 58.7697C112.768 58.65 112.666 58.3524 112.785 58.107C115.14 53.2531 119.953 50.1865 125.342 50.1037C125.417 50.1021 125.491 50.1021 125.566 50.1021C126.351 50.1021 127.137 50.1666 127.905 50.2939C128.175 50.3384 128.358 50.5946 128.313 50.8646C128.273 51.1054 128.065 51.2803 127.829 51.2803C127.799 51.2803 127.772 51.2772 127.743 51.2726C127.029 51.1545 126.296 51.0947 125.566 51.0947C125.495 51.0947 125.426 51.0947 125.357 51.0962C120.345 51.1745 115.87 54.0263 113.678 58.5396C113.594 58.7145 113.42 58.8172 113.239 58.8203C113.236 58.8203 113.233 58.8203 113.232 58.8203Z" fill="url(#paint16_linear_1_1411)"/>
<path d="M125.888 77.1738C119.041 77.1738 113.44 71.679 113.333 64.8098C113.225 57.8736 118.76 52.1642 125.696 52.0561C125.763 52.0561 125.828 52.0546 125.895 52.0546C132.74 52.0546 138.342 57.5494 138.448 64.4186C138.556 71.3533 133.022 77.0642 126.086 77.1723C126.02 77.1738 125.953 77.1738 125.888 77.1738" fill="url(#paint17_linear_1_1411)"/>
<path d="M165.414 54.6475C151.762 54.6475 140.588 43.6863 140.374 29.9848C140.16 16.1527 151.199 4.76351 165.032 4.54951C165.166 4.54769 165.298 4.54587 165.431 4.54587C179.083 4.54587 190.256 15.5053 190.47 29.2068C190.684 43.0406 179.645 54.428 165.811 54.642C165.679 54.6457 165.547 54.6475 165.414 54.6475V54.6475ZM165.431 5.37831C165.302 5.37831 165.173 5.38011 165.046 5.38192C151.673 5.59048 141 16.5988 141.207 29.9721C141.413 43.2184 152.215 53.8132 165.414 53.8132C165.541 53.8132 165.67 53.8132 165.799 53.8114C179.172 53.6029 189.845 42.5927 189.636 29.2194C189.431 15.975 178.63 5.37831 165.431 5.37831" fill="url(#paint18_linear_1_1411)"/>
<path d="M165.417 53.8154C152.217 53.8154 141.417 43.2197 141.211 29.9728C141.003 16.6011 151.675 5.5912 165.048 5.38323C165.177 5.38142 165.305 5.37961 165.432 5.37961C178.632 5.37961 189.434 15.9753 189.64 29.2205C189.848 42.594 179.174 53.6038 165.802 53.8118C165.672 53.8136 165.544 53.8154 165.417 53.8154V53.8154ZM165.967 9.61863C165.858 9.61863 165.75 9.62042 165.641 9.62223C154.324 9.79765 145.291 19.1166 145.466 30.4357C145.64 41.6445 154.782 50.6127 165.954 50.6127C166.063 50.6127 166.171 50.6127 166.28 50.6108C177.599 50.4354 186.63 41.1165 186.455 29.7974C186.281 18.5868 177.138 9.61863 165.967 9.61863V9.61863ZM165.43 6.77574C165.311 6.77574 165.189 6.77755 165.07 6.77936C156.406 6.91318 148.671 11.8448 144.882 19.6465C144.772 19.8762 144.868 20.1547 145.099 20.2668C145.164 20.2994 145.233 20.3138 145.302 20.3138C145.304 20.3138 145.305 20.3138 145.309 20.3138C145.479 20.312 145.64 20.2162 145.719 20.0516C149.353 12.5682 156.773 7.8391 165.084 7.70889C165.198 7.70708 165.314 7.70709 165.428 7.70709C166.642 7.70709 167.853 7.80655 169.04 8.00367C169.065 8.00728 169.094 8.01091 169.119 8.01091C169.342 8.01091 169.537 7.84635 169.575 7.62029C169.616 7.36711 169.446 7.12838 169.191 7.08498C167.956 6.88062 166.692 6.77574 165.43 6.77574" fill="url(#paint19_linear_1_1411)"/>
<path d="M145.301 20.3145C145.233 20.3145 145.164 20.2982 145.1 20.2676C144.867 20.1543 144.772 19.8753 144.884 19.6449C148.671 11.8442 156.407 6.9125 165.069 6.77931C165.192 6.77571 165.311 6.77571 165.431 6.77571C166.693 6.77571 167.958 6.8801 169.193 7.08529C169.447 7.12669 169.618 7.36608 169.575 7.61986C169.537 7.84665 169.342 8.01042 169.119 8.01042C169.094 8.01042 169.067 8.00683 169.04 8.00323C167.856 7.80525 166.643 7.70625 165.429 7.70625C165.314 7.70625 165.199 7.70625 165.086 7.70805C156.774 7.83764 149.353 12.5677 145.721 20.0517C145.641 20.2154 145.479 20.3108 145.308 20.3126C145.307 20.3144 145.305 20.3145 145.301 20.3145" fill="url(#paint20_linear_1_1411)"/>
<path d="M165.954 50.6133C154.783 50.6133 145.641 41.644 145.467 30.4342C145.29 19.1156 154.324 9.79696 165.642 9.6205C165.751 9.61872 165.86 9.61872 165.966 9.61872C177.139 9.61872 186.281 18.5862 186.456 29.7978C186.632 41.1164 177.599 50.435 166.28 50.6097C166.171 50.6133 166.063 50.6133 165.954 50.6133" fill="url(#paint21_linear_1_1411)"/>
<path d="M183.561 111.049C169.512 111.049 158.016 99.7713 157.796 85.6735C157.771 84.0794 157.891 82.518 158.146 81.0003C158.445 79.1971 158.933 77.4595 159.589 75.8045C163.309 66.3909 172.42 59.6665 183.168 59.4996C183.306 59.498 183.441 59.4965 183.577 59.4965C194.905 59.4965 204.572 66.8277 208.009 77.0555C208.58 78.7541 208.977 80.5323 209.183 82.3682C209.272 83.156 209.325 83.953 209.341 84.761C209.342 84.7969 209.342 84.8343 209.342 84.8718C209.349 85.2368 209.347 85.6002 209.336 85.9621C208.979 99.6995 197.84 110.83 183.97 111.046C183.834 111.049 183.697 111.049 183.561 111.049V111.049ZM183.577 60.3528C183.446 60.3528 183.313 60.3544 183.182 60.356C169.422 60.5712 158.439 71.9002 158.654 85.6595C158.865 99.2893 169.979 110.192 183.561 110.192C183.693 110.192 183.825 110.191 183.958 110.189C197.718 109.976 208.7 98.6466 208.486 84.8858C208.274 71.256 197.159 60.3528 183.577 60.3528Z" fill="url(#paint22_linear_1_1411)"/>
<path d="M183.563 110.191C169.981 110.191 158.867 99.2889 158.655 85.6596C158.441 71.8981 169.423 60.5696 183.184 60.3551C183.316 60.3535 183.447 60.352 183.579 60.352C197.16 60.352 208.276 71.256 208.487 84.8838C208.702 98.6453 197.72 109.974 183.958 110.188C183.828 110.19 183.694 110.191 183.563 110.191ZM184.129 64.7158C184.017 64.7158 183.905 64.7158 183.793 64.7173C172.146 64.8977 162.853 74.4881 163.033 86.1353C163.213 97.669 172.62 106.897 184.115 106.897C184.227 106.897 184.338 106.897 184.45 106.896C196.097 106.714 205.392 97.1249 205.21 85.4777C205.031 73.944 195.624 64.7158 184.129 64.7158ZM183.574 61.804C183.451 61.804 183.329 61.804 183.206 61.8055C174.295 61.9455 166.34 67.0151 162.445 75.0384C162.334 75.2685 162.43 75.5483 162.662 75.6587C162.727 75.6914 162.795 75.7054 162.864 75.7054C162.865 75.7054 162.868 75.7054 162.87 75.7054C163.041 75.7038 163.203 75.6074 163.283 75.4442C167.024 67.7395 174.662 62.8689 183.22 62.7368C183.338 62.7352 183.458 62.7336 183.574 62.7336C184.823 62.7336 186.073 62.8363 187.291 63.0384C187.319 63.043 187.346 63.0461 187.371 63.0461C187.596 63.0461 187.789 62.8829 187.828 62.6575C187.87 62.4025 187.699 62.1631 187.444 62.1211C186.174 61.9097 184.874 61.804 183.574 61.804" fill="url(#paint23_linear_1_1411)"/>
<path d="M162.862 75.7051C162.795 75.7051 162.725 75.6904 162.661 75.6597C162.428 75.5471 162.333 75.2678 162.444 75.0383C166.34 67.0146 174.293 61.9449 183.204 61.8059C183.327 61.8045 183.452 61.803 183.574 61.803C184.874 61.803 186.173 61.9098 187.444 62.1218C187.698 62.1627 187.869 62.4026 187.827 62.657C187.789 62.8837 187.594 63.046 187.371 63.046C187.344 63.046 187.318 63.043 187.292 63.0387C186.072 62.8354 184.822 62.7345 183.574 62.7345C183.456 62.7345 183.338 62.7345 183.221 62.736C174.662 62.869 167.023 67.7385 163.282 75.4433C163.202 75.6071 163.041 75.7036 162.87 75.7051C162.868 75.7051 162.865 75.7051 162.862 75.7051Z" fill="url(#paint24_linear_1_1411)"/>
<path d="M184.114 106.897C172.618 106.897 163.21 97.6692 163.032 86.1346C162.851 74.488 172.145 64.8991 183.792 64.718C183.904 64.7149 184.016 64.7149 184.126 64.7149C195.623 64.7149 205.029 73.9432 205.209 85.4778C205.39 97.1244 196.095 106.713 184.447 106.894C184.337 106.897 184.225 106.897 184.114 106.897" fill="url(#paint25_linear_1_1411)"/>
<path d="M215.082 62.4658C203.847 62.4658 194.652 53.4466 194.477 42.1704C194.3 30.7874 203.384 21.4153 214.769 21.238C214.877 21.2363 214.988 21.2363 215.096 21.2363C226.331 21.2363 235.527 30.2555 235.701 41.53C235.879 52.9146 226.794 62.2868 215.411 62.4641C215.301 62.4658 215.192 62.4658 215.082 62.4658ZM215.096 21.9214C214.991 21.9214 214.884 21.9214 214.779 21.9232C203.773 22.0953 194.992 31.1559 195.162 42.1618C195.331 53.0609 204.221 61.7806 215.082 61.7806C215.189 61.7806 215.294 61.7806 215.399 61.7772C226.405 61.6068 235.187 52.5462 235.016 41.5403C234.847 30.6411 225.957 21.9214 215.096 21.9214Z" fill="url(#paint26_linear_1_1411)"/>
<path d="M215.082 61.7793C204.22 61.7793 195.33 53.0605 195.161 42.1607C194.99 31.1545 203.774 22.0939 214.778 21.9222C214.885 21.9205 214.989 21.9204 215.094 21.9204C225.956 21.9204 234.847 30.641 235.015 41.5408C235.187 52.5453 226.404 61.6059 215.398 61.7776C215.293 61.7793 215.189 61.7793 215.082 61.7793ZM215.536 25.41C215.446 25.41 215.357 25.41 215.268 25.4118C205.951 25.556 198.519 33.2255 198.665 42.5402C198.807 51.7656 206.331 59.1449 215.524 59.1449C215.613 59.1449 215.704 59.1449 215.791 59.1432C225.108 58.999 232.54 51.3295 232.394 42.0147C232.252 32.7893 224.728 25.41 215.536 25.41ZM215.089 22.9457C214.991 22.9457 214.893 22.9457 214.794 22.9474C207.617 23.059 201.208 27.1428 198.072 33.6068C197.949 33.8592 198.053 34.1615 198.306 34.2851C198.378 34.3194 198.453 34.3349 198.527 34.3349C198.531 34.3349 198.532 34.3349 198.536 34.3349C198.721 34.3332 198.898 34.2267 198.986 34.0498C201.953 27.9328 208.019 24.0688 214.809 23.9623C214.904 23.9606 214.996 23.9606 215.091 23.9606C216.082 23.9606 217.073 24.0413 218.043 24.2028C218.072 24.2079 218.101 24.2113 218.132 24.2113C218.374 24.2113 218.585 24.031 218.627 23.7855C218.673 23.509 218.486 23.2462 218.209 23.2016C217.184 23.0316 216.137 22.9457 215.089 22.9457" fill="url(#paint27_linear_1_1411)"/>
<path d="M198.525 34.335C198.452 34.335 198.377 34.3196 198.304 34.2856C198.053 34.1632 197.947 33.8588 198.07 33.6071C201.207 27.1445 207.616 23.0594 214.792 22.9472C214.891 22.9455 214.99 22.9455 215.088 22.9455C216.134 22.9455 217.182 23.0305 218.207 23.2023C218.485 23.2482 218.672 23.5084 218.626 23.7856C218.585 24.0322 218.374 24.2108 218.131 24.2108C218.1 24.2108 218.071 24.2091 218.041 24.204C217.071 24.0424 216.08 23.9608 215.09 23.9608C214.995 23.9608 214.903 23.9625 214.808 23.9625C208.017 24.0696 201.952 27.9336 198.985 34.0492C198.898 34.2278 198.719 34.3333 198.534 34.335C198.53 34.335 198.529 34.335 198.525 34.335" fill="url(#paint28_linear_1_1411)"/>
<path d="M215.525 59.1455C206.331 59.1455 198.808 51.7639 198.664 42.5398C198.519 33.2256 205.952 25.5565 215.268 25.4119C215.358 25.4102 215.446 25.4084 215.535 25.4084C224.728 25.4084 232.253 32.7901 232.396 42.0141C232.54 51.3301 225.108 58.9992 215.792 59.1421C215.703 59.1455 215.613 59.1455 215.525 59.1455Z" fill="#FFE7E6"/>
<path d="M34.7 216.456C34.7 216.456 34.2342 218.954 33.994 221.428C33.9001 222.395 34.6382 223.243 35.6084 223.292C38.9048 223.462 45.9564 223.796 48.4887 223.707C48.8694 223.693 49.1219 223.306 48.9844 222.951C48.8692 222.653 48.6439 222.411 48.3552 222.276L36.7544 216.809L34.7 216.456" fill="#B8B8B8"/>
<path d="M34.3531 214.984L34.6796 217.979C34.6796 217.979 36.7117 218.948 38.1158 217.892L37.3024 214.549L34.3531 214.984" fill="url(#paint29_linear_1_1411)"/>
<path d="M35.1547 158.73C34.994 159.509 33.9596 197.717 37.8809 214.88C37.9448 215.16 37.8004 215.447 37.5336 215.553C36.9046 215.803 35.6728 216.161 34.2004 216.197C33.7445 216.208 33.3386 215.908 33.2142 215.469C32.0845 211.485 26.6795 191.524 26.1311 172.502C25.5182 151.245 26.138 171.778 26.138 171.778L26.7416 158.648L35.1547 158.73" fill="#A7BBCA"/>
<path d="M21.2838 217.633C21.2838 217.633 20.5684 218.889 19.8554 222.238C19.7266 222.844 20.1446 223.427 20.7595 223.494C21.8473 223.611 23.5224 223.766 24.8653 223.769C25.4843 223.771 25.9725 223.236 25.9038 222.621C25.7668 221.395 25.3225 219.381 23.9061 217.8L21.2838 217.633" fill="#B8B8B8"/>
<path d="M20.7035 213.779L21.4899 218.312C21.4899 218.312 22.3043 218.93 23.9311 218.503L23.5815 213.631L20.7035 213.779" fill="url(#paint30_linear_1_1411)"/>
<path d="M18.9777 159.748C15.4447 179.878 19.227 209.586 20.5427 215.407C20.6232 215.763 20.9076 216.038 21.2673 216.101C21.8783 216.208 22.8852 216.301 23.8813 216.022C24.2245 215.925 24.4679 215.619 24.4852 215.263C24.7139 210.57 24.6579 181.746 27.8793 170.384C28.0425 169.808 28.3998 169.309 28.8909 168.967L34.9736 164.729L35.5031 157.791L18.9777 159.748" fill="#C7DAE9"/>
<path d="M40.627 121.75C30.617 121.489 19.5438 124.177 19.5438 124.177C18.655 129.082 17.705 133.657 17.5065 138.484C17.0015 150.761 18.6643 161.67 18.6643 161.67C26.3955 163.775 35.17 160.584 35.17 160.584C36.5276 153.319 42.7336 132.893 42.7336 132.893C47.6309 132.332 51.674 130.96 55.0104 129.125C52.5069 126.168 51.3492 122.422 50.8521 120.211C47.3018 121.277 43.7145 121.83 40.627 121.75Z" fill="#E65891"/>
<path d="M70.342 107.286C69.3697 106.088 68.1193 106.638 68.1193 106.638C66.5871 112.848 58.8135 117.82 50.8538 120.211C51.3509 122.422 52.5087 126.168 55.0122 129.125C68.2539 121.846 70.342 107.286 70.342 107.286" fill="url(#paint31_linear_1_1411)"/>
<path d="M70.0992 107.584C70.1992 107.913 69.0033 108.4 68.3139 107.054C68.296 106.413 67.9321 103.663 68.3198 103.143C70.3871 100.38 74.3774 96.9304 74.3774 96.9304C75.0401 97.5974 74.4822 98.2395 74.4822 98.2395L72.5445 100.222C72.9392 100.95 73.4228 101.567 73.6434 102.447C73.8116 103.113 73.6979 103.823 73.3566 104.424C73.0144 105.027 72.5465 105.812 72.1063 106.426C71.2725 107.587 70.0992 107.584 70.0992 107.584" fill="url(#paint32_linear_1_1411)"/>
<path d="M71.6928 101.509L69.9301 102.976L69.3663 104.447L70.9093 106.191C70.9093 106.191 71.4623 103.267 71.8579 102.636C72.2536 102.006 72.0547 101.698 71.6928 101.509" fill="url(#paint33_linear_1_1411)"/>
<path d="M23.2935 133.909L19.546 124.178C19.546 124.178 10.134 130.442 8.51929 138.484C10.285 138.631 13.4957 139.121 16.6278 140.74C17.3557 136.942 23.2935 133.909 23.2935 133.909Z" fill="#E65891"/>
<path d="M31.3756 143.108C31.3756 143.108 20.8198 148.942 17.3256 143.841C16.6002 142.782 16.4342 141.735 16.625 140.74C13.4929 139.12 10.2822 138.631 8.51645 138.484C8.02964 140.908 8.25004 143.493 9.65224 146.117C15.7494 157.527 32.7404 145.71 32.7404 145.71L31.3756 143.108Z" fill="url(#paint34_linear_1_1411)"/>
<path d="M30.5623 113.524L27.2889 122.707C27.2347 122.858 27.2957 123.028 27.4363 123.107C28.3001 123.596 31.4153 125.013 35.2082 122.659C35.6034 122.414 35.8745 122.01 35.9385 121.549L37.0462 113.586L30.5623 113.524Z" fill="url(#paint35_linear_1_1411)"/>
<path d="M37.5779 105.06C37.5779 105.06 41.0131 111.678 40.5393 114.334C40.0657 116.99 35.7322 116.756 31.9671 114.56L29.3895 107.425L37.5779 105.06" fill="url(#paint36_linear_1_1411)"/>
<path d="M32.1672 111.071C32.3217 111.003 32.3801 110.817 32.2893 110.675C32.0132 110.244 31.4962 109.366 31.3359 108.598C31.3359 108.598 30.7108 108.19 32.9452 107.679C35.1798 107.166 38.5122 106.369 39.2291 104.478C39.928 102.635 38.1824 97.9652 35.291 101.645C35.181 101.785 34.9682 101.786 34.861 101.643C34.3987 101.03 33.1799 99.7531 31.4637 100.504C29.8576 101.206 29.6663 102.376 29.6826 102.967C29.6875 103.141 29.5308 103.274 29.3603 103.241C28.5533 103.079 26.6143 102.927 25.6896 104.91C24.9282 106.542 25.4041 107.474 25.8413 107.933C25.983 108.081 25.918 108.323 25.7211 108.38C25.1882 108.537 24.4978 108.982 24.5546 110.228C24.6332 111.949 26.559 111.816 27.1075 111.744C27.1974 111.732 27.2876 111.764 27.3476 111.831C27.8125 112.355 29.9079 114.583 32.196 114.87C32.3942 114.896 32.5498 114.701 32.4867 114.512L31.5228 111.621C31.478 111.486 31.5435 111.34 31.6734 111.284L32.1672 111.071" fill="#121619"/>
<path d="M32.5609 111.483C32.5609 111.483 30.0867 109.752 29.891 111.189C29.6953 112.625 32.1137 113.295 33.32 112.769L32.5609 111.483" fill="url(#paint37_linear_1_1411)"/>
<path d="M29.2192 152.326L34.9694 132.245C35.0346 132.017 35.229 131.852 35.4646 131.824C36.5065 131.702 39.5253 131.361 43.0107 131.066C47.2093 130.711 52.0849 130.423 54.9987 130.668C55.4131 130.703 55.6634 131.141 55.4785 131.514C53.822 134.866 47.0069 148.501 43.5941 152.967C43.4811 153.115 43.3062 153.201 43.12 153.199L29.7785 153.075C29.3904 153.071 29.1124 152.7 29.2192 152.326" fill="#141718"/>
<path d="M30.6101 147.475C30.6101 147.475 29.8091 144.181 30.1322 143.013C30.4553 141.844 31.0813 140.341 33.168 140.676C35.2547 141.009 37.7161 141.888 37.7161 141.888C37.7161 141.888 37.5919 143.411 36.0058 142.919L36.9894 143.681C36.9894 143.681 36.8488 144.899 35.5092 144.249L36.4239 145.258C36.4239 145.258 35.8486 146.259 34.8631 145.617C33.8775 144.975 33.4051 147.872 30.6101 147.475" fill="url(#paint38_linear_1_1411)"/>
<path d="M42.6262 137.062C42.6262 137.994 43.3819 138.749 44.3141 138.749C45.2463 138.749 46.002 137.994 46.002 137.062C46.002 136.13 45.2463 135.374 44.3141 135.374C43.3819 135.374 42.6262 136.13 42.6262 137.062Z" fill="#E65891"/>
<path d="M35.6212 138.173L36.792 134.201C36.9356 133.714 37.3277 133.347 37.8151 133.246C41.4846 132.48 51.5281 132.318 51.6291 132.317L51.6223 131.868C51.2081 131.874 41.4347 132.032 37.7236 132.806C37.0742 132.941 36.5523 133.428 36.3615 134.074L35.1907 138.046L35.6212 138.173" fill="#91B3FA"/>
<path d="M113.626 241.381C113.661 241.368 132.772 207.902 135.353 204.752C135.788 204.223 136.46 203.953 137.141 204.034L142.474 204.669L148.741 218.225L138.302 212.146C139.335 219.29 125.924 229.906 121.324 233.781C120.857 234.174 120.82 234.878 121.241 235.319L123.078 237.242C120.064 240.297 116.584 242.259 112.659 243.167L113.626 241.381" fill="url(#paint39_linear_1_1411)"/>
<path d="M122.016 236.205C122.016 236.205 123.189 236.584 123.585 237.627C123.775 238.127 123.571 238.692 123.136 239.003C121.207 240.386 114.843 244.849 111.905 245.724C111.664 245.795 111.434 245.577 111.489 245.332C111.639 244.649 112.127 243.286 113.698 241.292L113.557 241.577C113.378 241.938 113.772 242.313 114.122 242.115C116.087 241.006 120.088 238.579 122.016 236.205" fill="black"/>
<path d="M121.071 249.594C121.104 249.574 123.97 242.666 124.003 242.646C126.631 226.64 133.045 212.933 134.937 209.327C135.255 208.719 135.859 208.32 136.542 208.261L141.893 207.804L150.773 219.812L139.32 215.97C141.777 222.757 130.793 235.869 127.072 240.593C126.696 241.073 126.8 241.77 127.302 242.117L129.489 243.628C127.155 247.23 124.146 249.856 120.484 251.539L121.071 249.594Z" fill="url(#paint40_linear_1_1411)"/>
<path d="M128.241 242.828C128.241 242.828 129.465 242.96 130.065 243.903C130.352 244.353 130.266 244.949 129.904 245.341C128.293 247.085 122.964 252.745 120.264 254.195C120.043 254.314 119.774 254.147 119.778 253.897C119.787 253.197 119.989 251.764 121.123 249.493L121.043 249.8C120.941 250.19 121.402 250.478 121.706 250.214C123.406 248.73 126.832 245.543 128.241 242.828" fill="black"/>
<path d="M166.945 205.276C166.945 205.276 171.787 212.478 172.183 215.763C172.581 219.047 170.845 220.184 165.777 220.603C150.696 221.849 143.262 217.33 143.262 217.33C142.231 210.752 141.496 209.078 132.881 205.502C132.881 205.502 143.778 206.367 145.971 205.516C148.165 204.666 166.945 205.276 166.945 205.276" fill="white"/>
<path d="M147.635 164.929C147.635 164.929 151.006 160.94 154.592 165.834C155.241 166.722 157.735 165.989 158.65 167.845C159.121 168.804 160.141 169.348 161.192 169.154C163.807 168.672 168.084 168.632 170.195 172.731C171.806 175.86 170.562 177.691 168.951 178.735C167.767 179.502 167.345 181.059 168.061 182.274C168.749 183.439 168.877 185.017 167.105 186.916C163.134 191.172 155.274 184.216 155.274 184.216L149.032 169.467L147.635 164.929" fill="#121619"/>
<path d="M153.851 204.322C153.851 204.322 148.213 198.954 145.437 195.398C143.937 193.476 143.467 190.946 144.159 188.607C145.427 184.339 147.679 179.918 147.884 179.229C148.199 178.175 154.521 178.218 154.521 178.218C154.521 178.218 166.961 186.292 171.849 199.969L166.36 201.678C166.36 201.678 165.51 200.253 164.251 198.397C164.177 198.287 164.028 198.256 163.916 198.327C163.802 198.397 163.764 198.545 163.832 198.66C164.798 200.34 165.579 202.01 165.651 203.104L153.851 204.322Z" fill="#F55958"/>
<path d="M143.107 206.441L147.345 201.832L152.238 203.149C152.238 203.149 157.941 204.034 161.206 203.149C164.47 202.266 164.47 202.266 164.47 202.266L171.848 199.969L173.007 203.243C173.301 204.075 173.007 204.998 172.287 205.508C171.649 205.962 170.9 206.461 170.424 206.67C169.453 207.095 148.043 206.804 148.043 206.804L143.107 206.441Z" fill="url(#paint41_linear_1_1411)"/>
<path d="M150.175 170.619L154.425 178.519C154.143 180.244 149.8 180.292 149.128 179.263C149.06 179.158 149.022 179.037 148.995 178.914L146.454 173.636C146.345 173.12 147.756 171.386 148.221 171.139L149.909 170.24C150.56 169.894 147.846 169.866 150.175 170.619Z" fill="url(#paint42_linear_1_1411)"/>
<path d="M141.579 168.763C141.579 168.763 141.1 171.433 143.197 174.827C145.296 178.22 147.385 178.067 148.446 176.857C149.508 175.647 150.779 173.631 150.201 170.246C149.622 166.86 142.305 165.359 141.579 168.763" fill="url(#paint43_linear_1_1411)"/>
<path d="M147.66 170.613C147.66 170.613 144.263 166.151 141.654 170.041L141.698 171.385C141.698 171.385 138.307 171.225 138.674 168.1C139.042 164.973 141.81 162.838 145.65 163.906C149.489 164.974 151.732 166.19 152.165 168.856C152.599 171.521 150.422 171.085 150.422 171.085C150.422 171.085 149.591 169.247 148.588 169.121C147.584 168.995 147.947 170.45 147.947 170.45L147.66 170.613" fill="#121619"/>
<path d="M148.438 170.494C148.438 170.494 146.678 168.212 148.281 167.736C149.882 167.262 149.822 169.974 149.717 170.982L148.438 170.494" fill="url(#paint44_linear_1_1411)"/>
<path d="M157.129 208.265C157.114 208.265 157.1 208.267 157.085 208.267L137.598 208.245C137.117 208.245 136.727 207.853 136.727 207.371C136.728 206.89 137.121 206.492 137.601 206.501L157.087 206.522C157.569 206.523 157.958 206.913 157.958 207.395C157.957 207.862 157.59 208.243 157.129 208.265Z" fill="black"/>
<path d="M120.085 190.573H136.313C137.509 190.573 138.599 191.264 139.109 192.346L146.612 208.255H126.444C125.673 208.255 124.98 207.783 124.696 207.066L118.879 192.345C118.543 191.495 119.169 190.573 120.085 190.573" fill="black"/>
<path d="M131.517 198.73C131.869 199.823 131.609 200.884 130.937 201.1C130.265 201.316 129.435 200.606 129.084 199.513C128.731 198.421 128.991 197.36 129.663 197.143C130.336 196.928 131.166 197.638 131.517 198.73Z" fill="#F55958"/>
<path d="M184.04 98L178.37 88.1V86.78H179.03C180.09 86.78 180.98 86.68 181.7 86.48C182.44 86.28 183.02 85.95 183.44 85.49C183.86 85.03 184.11 84.4 184.19 83.6H178.37V81.68H184.16C184.02 80.94 183.74 80.34 183.32 79.88C182.9 79.4 182.33 79.05 181.61 78.83C180.91 78.61 180.05 78.5 179.03 78.5H178.37V76.58H190.79V78.5H185.12C185.58 78.88 185.96 79.33 186.26 79.85C186.56 80.37 186.75 80.98 186.83 81.68H190.79V83.6H186.89C186.75 85.06 186.19 86.2 185.21 87.02C184.25 87.82 182.97 88.33 181.37 88.55L187.1 98H184.04Z" fill="#F05969"/>
<path d="M215.432 52L210.896 44.08V43.024H211.424C212.272 43.024 212.984 42.944 213.56 42.784C214.152 42.624 214.616 42.36 214.952 41.992C215.288 41.624 215.488 41.12 215.552 40.48H210.896V38.944H215.528C215.416 38.352 215.192 37.872 214.856 37.504C214.52 37.12 214.064 36.84 213.488 36.664C212.928 36.488 212.24 36.4 211.424 36.4H210.896V34.864H220.832V36.4H216.296C216.664 36.704 216.968 37.064 217.208 37.48C217.448 37.896 217.6 38.384 217.664 38.944H220.832V40.48H217.712C217.6 41.648 217.152 42.56 216.368 43.216C215.6 43.856 214.576 44.264 213.296 44.44L217.88 52H215.432Z" fill="#F05969"/>
<path d="M166.04 41L160.37 31.1V29.78H161.03C162.09 29.78 162.98 29.68 163.7 29.48C164.44 29.28 165.02 28.95 165.44 28.49C165.86 28.03 166.11 27.4 166.19 26.6H160.37V24.68H166.16C166.02 23.94 165.74 23.34 165.32 22.88C164.9 22.4 164.33 22.05 163.61 21.83C162.91 21.61 162.05 21.5 161.03 21.5H160.37V19.58H172.79V21.5H167.12C167.58 21.88 167.96 22.33 168.26 22.85C168.56 23.37 168.75 23.98 168.83 24.68H172.79V26.6H168.89C168.75 28.06 168.19 29.2 167.21 30.02C166.25 30.82 164.97 31.33 163.37 31.55L169.1 41H166.04Z" fill="#F05969"/>
<path d="M125.824 72L122.422 66.06V65.268H122.818C123.454 65.268 123.988 65.208 124.42 65.088C124.864 64.968 125.212 64.77 125.464 64.494C125.716 64.218 125.866 63.84 125.914 63.36H122.422V62.208H125.896C125.812 61.764 125.644 61.404 125.392 61.128C125.14 60.84 124.798 60.63 124.366 60.498C123.946 60.366 123.43 60.3 122.818 60.3H122.422V59.148H129.874V60.3H126.472C126.748 60.528 126.976 60.798 127.156 61.11C127.336 61.422 127.45 61.788 127.498 62.208H129.874V63.36H127.534C127.45 64.236 127.114 64.92 126.526 65.412C125.95 65.892 125.182 66.198 124.222 66.33L127.66 72H125.824Z" fill="#F05969"/>
<defs>
<linearGradient id="paint0_linear_1_1411" x1="528.393" y1="282.029" x2="209.76" y2="-57.1618" gradientUnits="userSpaceOnUse">
<stop stop-color="#C4D5FD"/>
<stop offset="1" stop-color="#CEDDFC"/>
</linearGradient>
<linearGradient id="paint1_linear_1_1411" x1="536.907" y1="281.759" x2="213.545" y2="-62.469" gradientUnits="userSpaceOnUse">
<stop stop-color="#C4D5FD"/>
<stop offset="1" stop-color="#CEDDFC"/>
</linearGradient>
<linearGradient id="paint2_linear_1_1411" x1="541.836" y1="281.608" x2="215.728" y2="-65.5349" gradientUnits="userSpaceOnUse">
<stop stop-color="#C4D5FD"/>
<stop offset="1" stop-color="#CEDDFC"/>
</linearGradient>
<linearGradient id="paint3_linear_1_1411" x1="411.149" y1="285.736" x2="157.68" y2="15.9142" gradientUnits="userSpaceOnUse">
<stop stop-color="#C4D5FD"/>
<stop offset="1" stop-color="#CEDDFC"/>
</linearGradient>
<linearGradient id="paint4_linear_1_1411" x1="455.283" y1="284.341" x2="177.282" y2="-11.5948" gradientUnits="userSpaceOnUse">
<stop stop-color="#C4D5FD"/>
<stop offset="1" stop-color="#CEDDFC"/>
</linearGradient>
<linearGradient id="paint5_linear_1_1411" x1="469.127" y1="283.902" x2="183.434" y2="-20.2233" gradientUnits="userSpaceOnUse">
<stop stop-color="#C4D5FD"/>
<stop offset="1" stop-color="#CEDDFC"/>
</linearGradient>
<linearGradient id="paint6_linear_1_1411" x1="551.782" y1="281.288" x2="220.15" y2="-71.7376" gradientUnits="userSpaceOnUse">
<stop stop-color="#C4D5FD"/>
<stop offset="1" stop-color="#CEDDFC"/>
</linearGradient>
<linearGradient id="paint7_linear_1_1411" x1="568.623" y1="280.758" x2="227.631" y2="-82.2339" gradientUnits="userSpaceOnUse">
<stop stop-color="#C4D5FD"/>
<stop offset="1" stop-color="#CEDDFC"/>
</linearGradient>
<linearGradient id="paint8_linear_1_1411" x1="509.787" y1="282.618" x2="201.496" y2="-45.5626" gradientUnits="userSpaceOnUse">
<stop stop-color="#C4D5FD"/>
<stop offset="1" stop-color="#CEDDFC"/>
</linearGradient>
<linearGradient id="paint9_linear_1_1411" x1="519.233" y1="282.319" x2="205.697" y2="-51.4529" gradientUnits="userSpaceOnUse">
<stop stop-color="#C4D5FD"/>
<stop offset="1" stop-color="#CEDDFC"/>
</linearGradient>
<linearGradient id="paint10_linear_1_1411" x1="620.749" y1="-216.111" x2="430.663" y2="96.3874" gradientUnits="userSpaceOnUse">
<stop stop-color="#121619"/>
<stop offset="1" stop-color="#71828E"/>
</linearGradient>
<linearGradient id="paint11_linear_1_1411" x1="376.9" y1="205.485" x2="273.502" y2="60.7281" gradientUnits="userSpaceOnUse">
<stop stop-color="#C2D0DA"/>
<stop offset="1" stop-color="#6E808D"/>
</linearGradient>
<linearGradient id="paint12_linear_1_1411" x1="232.814" y1="45.9619" x2="133.009" y2="180.568" gradientUnits="userSpaceOnUse">
<stop stop-color="#C0CCD5"/>
<stop offset="1" stop-color="#71828E"/>
</linearGradient>
<linearGradient id="paint13_linear_1_1411" x1="101.865" y1="223.19" x2="-11.4509" y2="116.026" gradientUnits="userSpaceOnUse">
<stop stop-color="#BFCCD5"/>
<stop offset="1" stop-color="#71828E"/>
</linearGradient>
<linearGradient id="paint14_linear_1_1411" x1="188.565" y1="-28.8376" x2="220.06" y2="-66.565" gradientUnits="userSpaceOnUse">
<stop stop-color="#E1473D"/>
<stop offset="1" stop-color="#E9605A"/>
</linearGradient>
<linearGradient id="paint15_linear_1_1411" x1="237.188" y1="-93.2025" x2="144.758" y2="51.2604" gradientUnits="userSpaceOnUse">
<stop stop-color="#FF928E"/>
<stop offset="1" stop-color="#FE7062"/>
</linearGradient>
<linearGradient id="paint16_linear_1_1411" x1="236.46" y1="-92.1899" x2="144.269" y2="51.9013" gradientUnits="userSpaceOnUse">
<stop stop-color="#FFE7E6"/>
<stop offset="1" stop-color="#FFE0DD"/>
</linearGradient>
<linearGradient id="paint17_linear_1_1411" x1="234.263" y1="-89.1265" x2="142.791" y2="53.8395" gradientUnits="userSpaceOnUse">
<stop stop-color="#FFE7E6"/>
<stop offset="1" stop-color="#FFE0DD"/>
</linearGradient>
<linearGradient id="paint18_linear_1_1411" x1="279.014" y1="-121.987" x2="339.5" y2="-194.44" gradientUnits="userSpaceOnUse">
<stop stop-color="#E1473D"/>
<stop offset="1" stop-color="#E9605A"/>
</linearGradient>
<linearGradient id="paint19_linear_1_1411" x1="372.319" y1="-245.585" x2="194.953" y2="31.6297" gradientUnits="userSpaceOnUse">
<stop stop-color="#E65891"/>
<stop offset="1" stop-color="#F55958"/>
</linearGradient>
<linearGradient id="paint20_linear_1_1411" x1="370.344" y1="-243" x2="193.818" y2="32.9019" gradientUnits="userSpaceOnUse">
<stop stop-color="#FFE7E6"/>
<stop offset="1" stop-color="#FFE0DD"/>
</linearGradient>
<linearGradient id="paint21_linear_1_1411" x1="366.319" y1="-237.737" x2="191.503" y2="35.491" gradientUnits="userSpaceOnUse">
<stop stop-color="#FFE7E6"/>
<stop offset="1" stop-color="#FFE0DD"/>
</linearGradient>
<linearGradient id="paint22_linear_1_1411" x1="260.77" y1="26.7167" x2="314.301" y2="-37.4063" gradientUnits="userSpaceOnUse">
<stop stop-color="#E1473D"/>
<stop offset="1" stop-color="#E9605A"/>
</linearGradient>
<linearGradient id="paint23_linear_1_1411" x1="343.089" y1="-82.752" x2="186.198" y2="162.459" gradientUnits="userSpaceOnUse">
<stop stop-color="#E65891"/>
<stop offset="1" stop-color="#F55958"/>
</linearGradient>
<linearGradient id="paint24_linear_1_1411" x1="320.048" y1="-60.0137" x2="172.475" y2="170.636" gradientUnits="userSpaceOnUse">
<stop stop-color="#FFE7E6"/>
<stop offset="1" stop-color="#FFE0DD"/>
</linearGradient>
<linearGradient id="paint25_linear_1_1411" x1="338.058" y1="-77.7895" x2="183.201" y2="164.244" gradientUnits="userSpaceOnUse">
<stop stop-color="#FFE7E6"/>
<stop offset="1" stop-color="#FFE0DD"/>
</linearGradient>
<linearGradient id="paint26_linear_1_1411" x1="359.388" y1="-91.6635" x2="406.64" y2="-148.264" gradientUnits="userSpaceOnUse">
<stop stop-color="#E1473D"/>
<stop offset="1" stop-color="#E9605A"/>
</linearGradient>
<linearGradient id="paint27_linear_1_1411" x1="432.018" y1="-188.217" x2="293.41" y2="28.4183" gradientUnits="userSpaceOnUse">
<stop stop-color="#E65891"/>
<stop offset="1" stop-color="#F55958"/>
</linearGradient>
<linearGradient id="paint28_linear_1_1411" x1="427.4" y1="-183.489" x2="290.136" y2="31.0494" gradientUnits="userSpaceOnUse">
<stop stop-color="#FFE7E6"/>
<stop offset="1" stop-color="#FFE0DD"/>
</linearGradient>
<linearGradient id="paint29_linear_1_1411" x1="34.3393" y1="216.442" x2="38.1292" y2="216.478" gradientUnits="userSpaceOnUse">
<stop stop-color="#FEBBBA"/>
<stop offset="1" stop-color="#FF928E"/>
</linearGradient>
<linearGradient id="paint30_linear_1_1411" x1="20.6812" y1="216.118" x2="23.9534" y2="216.149" gradientUnits="userSpaceOnUse">
<stop stop-color="#FEBBBA"/>
<stop offset="1" stop-color="#FF928E"/>
</linearGradient>
<linearGradient id="paint31_linear_1_1411" x1="70.1336" y1="81.0354" x2="93.3897" y2="81.2563" gradientUnits="userSpaceOnUse">
<stop stop-color="#FEBBBA"/>
<stop offset="1" stop-color="#FF928E"/>
</linearGradient>
<linearGradient id="paint32_linear_1_1411" x1="94.8326" y1="66.2831" x2="78.1016" y2="103.389" gradientUnits="userSpaceOnUse">
<stop stop-color="#FEBBBA"/>
<stop offset="1" stop-color="#FF928E"/>
</linearGradient>
<linearGradient id="paint33_linear_1_1411" x1="97.0003" y1="59.4722" x2="103.778" y2="49.2658" gradientUnits="userSpaceOnUse">
<stop stop-color="#FEBBBA"/>
<stop offset="1" stop-color="#FF928E"/>
</linearGradient>
<linearGradient id="paint34_linear_1_1411" x1="8.38949" y1="144.31" x2="32.9603" y2="144.543" gradientUnits="userSpaceOnUse">
<stop stop-color="#FEBBBA"/>
<stop offset="1" stop-color="#FF928E"/>
</linearGradient>
<linearGradient id="paint35_linear_1_1411" x1="38.6849" y1="90.1355" x2="49.8995" y2="90.242" gradientUnits="userSpaceOnUse">
<stop stop-color="#FEBBBA"/>
<stop offset="1" stop-color="#FF928E"/>
</linearGradient>
<linearGradient id="paint36_linear_1_1411" x1="57.0614" y1="73.2904" x2="44.2467" y2="65.3065" gradientUnits="userSpaceOnUse">
<stop stop-color="#FEBBBA"/>
<stop offset="1" stop-color="#FF928E"/>
</linearGradient>
<linearGradient id="paint37_linear_1_1411" x1="50.8404" y1="82.5665" x2="39.6391" y2="75.5879" gradientUnits="userSpaceOnUse">
<stop stop-color="#FEBBBA"/>
<stop offset="1" stop-color="#FF928E"/>
</linearGradient>
<linearGradient id="paint38_linear_1_1411" x1="30.0554" y1="144.071" x2="37.7161" y2="144.071" gradientUnits="userSpaceOnUse">
<stop stop-color="#FEBBBA"/>
<stop offset="1" stop-color="#FF928E"/>
</linearGradient>
<linearGradient id="paint39_linear_1_1411" x1="139.995" y1="195.895" x2="176.179" y2="216.549" gradientUnits="userSpaceOnUse">
<stop stop-color="#FEBBBA"/>
<stop offset="1" stop-color="#FF928E"/>
</linearGradient>
<linearGradient id="paint40_linear_1_1411" x1="145.472" y1="200.006" x2="20.3676" y2="121.689" gradientUnits="userSpaceOnUse">
<stop stop-color="#FEBBBA"/>
<stop offset="1" stop-color="#FF928E"/>
</linearGradient>
<linearGradient id="paint41_linear_1_1411" x1="234.634" y1="169.363" x2="275.218" y2="169.363" gradientUnits="userSpaceOnUse">
<stop stop-color="#FEBBBA"/>
<stop offset="1" stop-color="#FF928E"/>
</linearGradient>
<linearGradient id="paint42_linear_1_1411" x1="195.556" y1="162.848" x2="196.413" y2="149.483" gradientUnits="userSpaceOnUse">
<stop stop-color="#FEBBBA"/>
<stop offset="1" stop-color="#FF928E"/>
</linearGradient>
<linearGradient id="paint43_linear_1_1411" x1="191.875" y1="154.581" x2="176.061" y2="124.316" gradientUnits="userSpaceOnUse">
<stop stop-color="#FEBBBA"/>
<stop offset="1" stop-color="#FF928E"/>
</linearGradient>
<linearGradient id="paint44_linear_1_1411" x1="194.787" y1="153.123" x2="179.02" y2="122.947" gradientUnits="userSpaceOnUse">
<stop stop-color="#FEBBBA"/>
<stop offset="1" stop-color="#FF928E"/>
</linearGradient>
</defs>
</svg>
