<svg width="26" height="18" viewBox="0 0 26 18" fill="none" xmlns="http://www.w3.org/2000/svg">
<path fill-rule="evenodd" clip-rule="evenodd" d="M3.13043 0H21.913C22.7433 0 23.5395 0.329813 24.1266 0.916883C24.7137 1.50395 25.0435 2.30019 25.0435 3.13043V14.8696C25.0435 15.6998 24.7137 16.496 24.1266 17.0831C23.5395 17.6702 22.7433 18 21.913 18H3.13043C2.30019 18 1.50395 17.6702 0.916883 17.0831C0.329813 16.496 0 15.6998 0 14.8696V3.13043C0 2.30019 0.329813 1.50395 0.916883 0.916883C1.50395 0.329813 2.30019 0 3.13043 0ZM23.0198 15.9763C23.3134 15.6828 23.4783 15.2847 23.4783 14.8696V3.13043C23.4783 2.71531 23.3134 2.31719 23.0198 2.02366C22.7263 1.73012 22.3282 1.56522 21.913 1.56522H3.13043C2.71531 1.56522 2.31719 1.73012 2.02366 2.02366C1.73012 2.31719 1.56522 2.71531 1.56522 3.13043V14.8696C1.56522 15.2847 1.73012 15.6828 2.02366 15.9763C2.31719 16.2699 2.71531 16.4348 3.13043 16.4348H21.913C22.3282 16.4348 22.7263 16.2699 23.0198 15.9763ZM21.4982 4.00696C21.5888 4.05555 21.669 4.12152 21.7341 4.20112C21.7993 4.28064 21.8482 4.37224 21.878 4.47067C21.9078 4.5691 21.9179 4.67244 21.9077 4.77478C21.8976 4.87712 21.8673 4.97645 21.8187 5.06709C21.7701 5.15773 21.7042 5.2379 21.6246 5.30303L13.0159 12.3465C12.876 12.4612 12.7006 12.5239 12.5197 12.5239C12.3388 12.5239 12.1634 12.4612 12.0235 12.3465L3.41483 5.30303C3.25418 5.17144 3.15238 4.98141 3.13183 4.77476C3.11129 4.56812 3.17367 4.36177 3.30526 4.20112C3.43686 4.04046 3.62688 3.93867 3.83353 3.91812C4.04018 3.89757 4.24653 3.95996 4.40718 4.09155L12.5213 10.7281L20.6322 4.09155C20.7117 4.02634 20.8033 3.97745 20.9018 3.94766C21.0002 3.91787 21.1035 3.90778 21.2059 3.91795C21.3082 3.92813 21.4076 3.95838 21.4982 4.00696ZM18.5538 10.4024C18.4051 10.2687 18.2108 10.197 18.0109 10.202C17.811 10.207 17.6206 10.2884 17.4788 10.4294C17.3369 10.5704 17.2545 10.7604 17.2483 10.9603C17.2422 11.1602 17.3128 11.3548 17.4457 11.5043L20.5761 14.6347C20.6482 14.7096 20.7345 14.7693 20.8299 14.8105C20.9253 14.8516 21.028 14.8733 21.1319 14.8744C21.2358 14.8754 21.3389 14.8558 21.4351 14.8166C21.5313 14.7773 21.6188 14.7194 21.6924 14.646C21.7659 14.5726 21.8242 14.4853 21.8637 14.3892C21.9031 14.2931 21.9231 14.1901 21.9223 14.0861C21.9216 13.9822 21.9001 13.8795 21.8593 13.784C21.8184 13.6884 21.7589 13.602 21.6843 13.5297L18.5538 10.4024ZM3.35921 13.5328L6.48964 10.4024V10.3992C6.56173 10.3244 6.648 10.2647 6.74343 10.2235C6.83885 10.1824 6.94151 10.1606 7.04542 10.1596C7.14933 10.1585 7.2524 10.1782 7.34863 10.2174C7.44487 10.2566 7.53232 10.3146 7.60591 10.388C7.67949 10.4614 7.73772 10.5487 7.77721 10.6448C7.81669 10.7409 7.83664 10.8439 7.83589 10.9478C7.83514 11.0517 7.8137 11.1545 7.77282 11.25C7.73195 11.3455 7.67246 11.432 7.59782 11.5043L4.46738 14.6347C4.39666 14.7143 4.31044 14.7786 4.21401 14.8237C4.11758 14.8688 4.01296 14.8937 3.90655 14.897C3.80015 14.9003 3.6942 14.8818 3.59517 14.8427C3.49615 14.8036 3.40614 14.7448 3.33065 14.6697C3.25517 14.5946 3.19579 14.505 3.15615 14.4062C3.1165 14.3074 3.09744 14.2015 3.10011 14.0951C3.10278 13.9887 3.12714 13.8839 3.17169 13.7872C3.21624 13.6906 3.28005 13.604 3.35921 13.5328Z" fill="white"/>
</svg>
