<svg width="186" height="52" viewBox="0 0 186 52" fill="none" xmlns="http://www.w3.org/2000/svg">
<path fill-rule="evenodd" clip-rule="evenodd" d="M13.2218 28.8766H23.5364L23.5345 42.2422H1.44711C1.12018 42.2422 0.806638 42.1123 0.575464 41.8812C0.34429 41.65 0.214417 41.3365 0.214417 41.0095V15.4838C0.214417 7.47351 6.70832 0.979614 14.7186 0.979614H26.3947C26.7213 0.979447 27.0345 1.10892 27.2657 1.33958C27.4968 1.57025 27.6269 1.88323 27.6274 2.20978V7.26438L13.2218 28.8766ZM27.6612 22.6876V9.75418L49.0232 9.75608C49.3503 9.75608 49.664 9.88602 49.8953 10.1173C50.1266 10.3486 50.2565 10.6623 50.2565 10.9894V36.5151C50.2565 44.526 43.7626 51.0199 35.7517 51.0199H24.8028C24.6409 51.0199 24.4805 50.988 24.3309 50.9261C24.1813 50.8641 24.0454 50.7732 23.9309 50.6587C23.8165 50.5441 23.7257 50.4082 23.6638 50.2585C23.6019 50.1089 23.57 49.9486 23.5701 49.7866V44.2992L37.9757 22.6876H27.6612Z" fill="url(#paint0_linear_211_31)"/>
<path d="M75.5677 28.1352C75.5677 32.312 72.605 35.3825 68.9684 35.3825C67.2164 35.3825 65.8252 34.7814 65.0839 33.3981L64.747 35.1747H60.6822L64.0058 18.0476H68.2706L67.1946 23.6098C68.1048 22.8434 69.2505 22.4346 70.4269 22.4567C73.0528 22.4567 75.5677 24.5105 75.5677 28.1352ZM71.2573 28.3587C71.2573 26.9039 70.4052 25.9586 68.9445 25.9586C67.262 25.9586 66.049 27.3665 66.049 29.4671C66.049 30.922 66.9012 31.8449 68.3619 31.8449C70.0443 31.8516 71.2573 30.4437 71.2573 28.3654V28.3587Z" fill="#121619"/>
<path d="M79.6067 18.0476H83.8737L80.5544 35.1747H76.2896L79.6067 18.0476Z" fill="#121619"/>
<path d="M85.7367 22.6646H89.9798L87.5561 35.1792H83.313L85.7367 22.6646ZM86.0063 19.1091C86.0063 17.7012 87.0932 16.6174 88.7452 16.6174C90.2494 16.6174 91.2145 17.5113 91.2145 18.718C91.2145 20.2176 90.1145 21.2791 88.4538 21.2791C86.9496 21.2791 86.0063 20.3092 86.0063 19.1091Z" fill="#121619"/>
<path d="M104.755 26.7028C104.755 27.2225 104.701 27.7408 104.596 28.2492L103.248 35.1769H98.9834L100.24 28.6671C100.301 28.3945 100.332 28.1156 100.331 27.8358C100.331 26.7519 99.7921 26.1754 98.6465 26.1754C97.188 26.1754 96.1772 27.0693 95.7946 28.9911L94.5839 35.1769H90.3169L92.7427 22.6623H96.7837L96.5359 23.954C97.5761 22.9727 98.9413 22.4364 100.353 22.4545C102.957 22.4567 104.755 23.9116 104.755 26.7028Z" fill="#121619"/>
<path d="M115.217 28.2049L119.303 35.175H114.319L111.828 30.9044L110.076 32.4688L109.561 35.1683H105.293L108.617 18.0412H112.882L111.154 26.9288L116.071 22.6582H121.459L115.217 28.2049Z" fill="#121619"/>
<path d="M141.555 22.457L140.813 26.4035C140.493 26.3588 140.171 26.3357 139.848 26.3343C137.983 26.3343 136.794 27.1879 136.39 29.2663L135.223 35.1749H130.955L133.381 22.6603H137.422L137.153 24.0459C138.231 22.9173 139.735 22.457 141.555 22.457Z" fill="#121619"/>
<path d="M156.035 22.6647L153.609 35.1793H149.568L149.816 34.0016C148.862 34.9194 147.596 35.4167 146.29 35.3872C143.664 35.3872 141.149 33.3334 141.149 29.6863C141.149 25.5319 144.112 22.4614 147.748 22.4614C149.387 22.4614 150.713 22.9687 151.476 24.1687L151.768 22.6692L156.035 22.6647ZM150.668 28.3656C150.668 26.9108 149.816 25.9655 148.355 25.9655C146.672 25.9655 145.459 27.3734 145.459 29.474C145.459 30.9288 146.312 31.8518 147.772 31.8518C149.479 31.8518 150.668 30.4439 150.668 28.3656Z" fill="#121619"/>
<path d="M172.604 18.0476L169.283 35.1747H165.24L165.487 33.9523C164.54 34.8863 163.274 35.4 161.962 35.3825C159.336 35.3825 156.821 33.3288 156.821 29.6817C156.821 25.5273 159.807 22.4567 163.444 22.4567C165.061 22.4567 166.385 22.964 167.139 24.1194L168.331 18.0476H172.604ZM166.342 28.3654C166.342 26.9106 165.509 25.9653 164.051 25.9653C162.344 25.9653 161.155 27.3732 161.155 29.4738C161.155 30.9287 161.986 31.8516 163.444 31.8516C165.15 31.8516 166.342 30.4437 166.342 28.3654Z" fill="#121619"/>
<path d="M185.546 30.0105H176.61C176.766 31.3961 177.697 32.0419 179.371 32.0419C180.434 32.0559 181.471 31.6982 182.312 31.0273L184.085 33.7738C182.564 34.927 180.74 35.3896 178.899 35.3896C174.986 35.3896 172.434 33.1727 172.434 29.6887C172.434 25.5343 175.421 22.4638 179.799 22.4638C183.494 22.4638 185.792 24.6784 185.792 27.9568C185.783 28.6486 185.701 29.3373 185.546 30.0105ZM176.851 27.7043H181.851C181.872 26.3634 180.953 25.579 179.584 25.579C178.155 25.5723 177.251 26.4506 176.851 27.6976V27.7043Z" fill="#121619"/>
<path d="M127.385 26.4034H130.146L130.955 22.6356H128.194L128.822 19.3818L121.323 26.4034H123.12L122.312 30.5354C122.231 30.9224 122.193 31.3174 122.199 31.7131C122.199 34.044 123.816 35.3826 126.307 35.3826C127.431 35.3826 128.574 35.1748 129.474 34.6429L128.935 31.6193C128.545 31.8516 128.105 31.9792 127.655 31.9902C126.914 31.9902 126.533 31.6193 126.533 30.9287C126.539 30.7894 126.554 30.6506 126.577 30.5131L127.385 26.4034Z" fill="#121619"/>
<defs>
<path style = "paint0_linear_211_31" x1="0.214417" y1="0.979614" x2="109.458" y2="120.683" gradientUnits="userSpaceOnUse">
 
<path style= "fill:#FA7415"/>
<stop offset="1" stop-color="#D946EF"/>
</linearGradient>
</defs>
</svg>
