<svg width="53" height="64" viewBox="0 0 53 64" fill="none" xmlns="http://www.w3.org/2000/svg">
<path d="M38.7348 52.8716C37.21 53.7272 35.6852 54.5828 34.1603 55.4384C31.7309 56.7985 29.3079 58.165 26.8784 59.525C26.3228 59.8379 25.7736 60.1444 25.2179 60.4573H27.1756C24.6105 58.9823 22.0454 57.5072 19.4802 56.0259C17.9877 55.1703 16.4951 54.3083 15.0027 53.4527C14.6925 53.2739 14.3889 53.1015 14.0787 52.9227C13.6523 52.6737 13.2258 52.4182 12.8188 52.1437C12.4957 51.933 12.1856 51.7095 11.8754 51.4796C11.7656 51.3966 11.4813 51.1667 11.9594 51.5498C11.8819 51.4924 11.8108 51.4349 11.7333 51.3711C11.5588 51.2306 11.3844 51.0901 11.2164 50.9496C10.5638 50.4005 9.93709 49.8131 9.35556 49.1937C9.05189 48.8744 8.76114 48.5424 8.47684 48.2104C8.33469 48.0443 8.199 47.8656 8.06332 47.6995C8.50914 48.2359 8.01163 47.6293 7.90825 47.4888C6.88738 46.1032 6.03454 44.6027 5.36251 43.0255C5.42712 43.1787 5.49174 43.332 5.55635 43.4852C4.79392 41.6846 4.27704 39.8009 4.01215 37.8662C4.03799 38.0386 4.05738 38.2046 4.08322 38.377C3.88293 36.902 3.88293 35.4334 3.88293 33.9456V28.4543V21.1815V14.7069C3.88293 13.6406 3.91523 12.5679 3.88293 11.4951V11.4504L1.94459 13.3659C6.26066 13.3659 10.622 12.6252 14.6798 11.1566C16.7796 10.3968 18.8278 9.47086 20.7663 8.35989C22.4075 7.42126 23.9388 6.34218 25.4249 5.18638C26.239 4.55424 27.0596 3.92212 27.8737 3.28998H25.1341C27.2211 4.90546 29.2758 6.57838 31.5436 7.95124C35.2459 10.1861 39.3811 11.7952 43.6325 12.6316C46.0749 13.1105 48.5754 13.3723 51.063 13.3723L49.1247 11.4568V14.0812V20.2429V27.4966V33.3199C49.1247 34.4948 49.1505 35.6761 49.0665 36.8447C49.0342 37.3044 48.9825 37.7577 48.9244 38.2111C48.9502 38.0387 48.9696 37.8727 48.9954 37.7003C48.7241 39.6478 48.2007 41.5569 47.4319 43.3703L47.6257 42.9106C46.8956 44.6091 45.9651 46.2117 44.8345 47.6804C44.576 48.0188 45.0735 47.3803 44.8797 47.623C44.8022 47.7187 44.7246 47.8145 44.6471 47.9103C44.4985 48.0891 44.3434 48.2679 44.1948 48.4467C43.8847 48.7978 43.5616 49.1426 43.2321 49.4747C42.573 50.1324 41.8753 50.7454 41.1451 51.3201C40.9125 51.5052 41.3066 51.1987 41.3131 51.1924C41.2549 51.2434 41.1839 51.2881 41.1257 51.3328C41.0224 51.4094 40.919 51.4861 40.8156 51.5563C40.5959 51.7159 40.3698 51.8692 40.1436 52.0161C39.6784 52.3225 39.2132 52.6035 38.7351 52.8717C37.8563 53.3697 37.4751 54.6276 38.0373 55.4896C38.6123 56.3708 39.7495 56.7092 40.6864 56.1792C43.006 54.8703 45.1382 53.1782 46.8891 51.1859C48.7112 49.1235 50.1327 46.8184 51.1923 44.2962C52.2067 41.8826 52.7689 39.3029 52.9433 36.6913C52.995 35.9251 52.9885 35.1525 52.9885 34.3799V26.9346V17.1333C52.9885 15.2687 53.0144 13.3979 52.9885 11.527V11.4439C52.9885 10.4095 52.1033 9.52839 51.0502 9.52839C49.4542 9.52839 47.8519 9.41984 46.2688 9.20913C46.4433 9.23467 46.6113 9.25382 46.7857 9.27937C43.6779 8.85793 40.6347 8.03425 37.7401 6.83384C37.8952 6.8977 38.0502 6.96156 38.2053 7.0254C36.0731 6.13147 34.0314 5.04598 32.1188 3.76257C31.6342 3.4433 31.1625 3.10489 30.6973 2.76009C30.581 2.67069 30.4647 2.58768 30.3484 2.49829C30.4066 2.54298 30.6844 2.7537 30.4777 2.59407C30.4389 2.56214 30.4001 2.5366 30.3614 2.50467C29.9155 2.15987 29.4697 1.80868 29.0174 1.46387C28.6298 1.16377 28.2485 0.863659 27.8609 0.563554C27.4603 0.250674 27.0338 -0.0238849 26.4911 0.00165035C25.9419 0.0271914 25.5477 0.231526 25.1213 0.563554C24.3201 1.18293 23.5253 1.80225 22.7241 2.42166C22.6014 2.51744 22.1749 2.82393 22.6337 2.4919C22.162 2.83031 21.7033 3.1815 21.2251 3.51354C20.2753 4.16483 19.2868 4.77138 18.2787 5.33334C17.1416 5.9591 15.9785 6.52102 14.7832 7.01911L15.2484 6.82756C12.3538 8.02796 9.31054 8.85169 6.20277 9.27308C6.37723 9.24754 6.54521 9.22838 6.71967 9.20284C5.13672 9.41356 3.54078 9.52211 1.93834 9.52211C0.891617 9.52211 0 10.3969 0 11.4377V15.62V24.5018V32.8027V35.0439C0 36.3912 0.103381 37.7257 0.297214 39.0602C1.00795 43.9449 3.38572 48.5806 6.84238 52.1314C8.39307 53.7213 10.1958 55.1068 12.1276 56.2243C12.7414 56.5819 13.3617 56.9331 13.9756 57.2907C16.5536 58.7721 19.1252 60.2534 21.7032 61.7348C22.6788 62.2967 23.6609 62.8586 24.6365 63.4205C24.8239 63.5291 25.0113 63.644 25.2051 63.7462C25.8513 64.0846 26.5426 64.0846 27.1952 63.7462C27.2598 63.7143 27.318 63.6759 27.3826 63.644C29.4631 62.4755 31.55 61.307 33.6306 60.1386C35.8597 58.887 38.0888 57.6355 40.318 56.3841C40.4408 56.3138 40.57 56.2436 40.6928 56.1733C41.578 55.6753 41.9527 54.4174 41.3906 53.5554C40.8091 52.6806 39.6784 52.3421 38.735 52.8721L38.7348 52.8716Z" fill="#414B53"/>
<path d="M15.4502 34.2284L22.5355 41.532C23.1409 42.156 24.1621 42.156 24.7675 41.532L37.3174 28.5955C37.8964 27.9986 38.4965 27.4071 39.065 26.794L39.0913 26.7669C39.6756 26.1646 39.7177 25.0576 39.0913 24.4662C38.4596 23.8693 37.4806 23.8204 36.8593 24.4662L24.3095 37.4026C23.7304 37.9995 23.125 38.5856 22.5618 39.2041L22.5355 39.2312H24.7675L17.6822 31.9276C17.0979 31.3253 16.024 31.2819 15.4502 31.9276C14.8712 32.5734 14.8291 33.5827 15.4502 34.2284Z" fill="#9EA9B2"/>
</svg>
